<?xml version="1.0" standalone="no"?>
<!DOCTYPE svg PUBLIC "-//W3C//DTD SVG 20010904//EN"
 "http://www.w3.org/TR/2001/REC-SVG-20010904/DTD/svg10.dtd">
<svg version="1.0" xmlns="http://www.w3.org/2000/svg"
 width="776.000000pt" height="776.000000pt" viewBox="0 0 776.000000 776.000000"
 preserveAspectRatio="xMidYMid meet">
<metadata>
Created by potrace 1.14, written by Peter Selinger 2001-2017
</metadata>
<g transform="translate(0.000000,776.000000) scale(0.100000,-0.100000)"
fill="#000000" stroke="none">
<path d="M3877 5703 c5 -12 3 -14 -8 -8 -22 14 -50 13 -56 -2 -8 -20 -23 -16
-16 5 5 16 5 16 -8 -1 -16 -20 -64 -33 -53 -14 4 7 -1 4 -12 -5 -16 -14 -23
-15 -32 -6 -8 8 -12 8 -12 1 0 -6 -15 -9 -36 -6 -23 2 -33 0 -29 -7 3 -5 -1
-10 -10 -10 -10 0 -13 5 -9 13 5 8 3 8 -9 -2 -9 -7 -28 -11 -42 -9 -15 3 -22
1 -18 -5 4 -6 0 -8 -10 -4 -9 3 -18 1 -21 -6 -2 -7 -5 -4 -5 6 -1 9 -5 17 -11
17 -5 0 -7 -8 -3 -17 3 -10 3 -15 -2 -11 -4 4 -17 2 -29 -4 -19 -10 -20 -10
-7 6 12 14 12 16 -3 10 -9 -3 -16 -10 -16 -15 0 -4 -7 -6 -15 -3 -8 4 -12 11
-8 18 3 6 2 7 -3 3 -5 -5 -10 -13 -10 -18 -1 -5 -2 -12 -3 -16 0 -4 -8 2 -16
13 -11 14 -14 15 -9 2 4 -12 1 -16 -13 -14 -10 2 -26 -1 -37 -6 -13 -7 -16 -7
-12 1 4 6 2 11 -3 11 -6 0 -11 -4 -11 -10 0 -5 -7 -6 -17 -3 -12 5 -14 3 -8
-8 8 -12 6 -12 -8 0 -14 11 -17 11 -17 0 0 -12 -2 -12 -9 0 -7 11 -10 11 -15
0 -5 -11 -7 -11 -12 -2 -4 10 -9 9 -21 -2 -8 -8 -19 -13 -24 -9 -6 3 -16 1
-24 -6 -9 -8 -15 -8 -20 0 -5 8 -10 8 -20 0 -7 -6 -25 -9 -39 -6 -15 3 -24 1
-21 -5 7 -10 4 -11 -37 -13 -15 -1 -25 1 -23 4 2 3 -9 6 -25 5 -15 0 -26 -3
-24 -7 7 -11 -43 -21 -57 -12 -8 4 -9 3 -5 -4 4 -7 1 -12 -9 -12 -9 0 -23 -7
-31 -15 -19 -18 -38 -20 -28 -2 5 8 3 8 -9 -2 -9 -7 -14 -18 -10 -24 3 -5 1
-7 -5 -3 -6 3 -13 2 -16 -3 -3 -5 -15 -7 -26 -4 -13 3 -22 -1 -26 -12 -5 -13
-9 -14 -15 -3 -7 10 -9 10 -9 -3 0 -11 -8 -15 -25 -14 -14 2 -27 -1 -31 -6 -3
-5 -10 -7 -15 -4 -5 4 -6 -2 -2 -12 6 -16 5 -17 -12 -3 -11 9 -16 10 -11 3 4
-8 1 -13 -9 -13 -10 0 -13 -5 -9 -12 4 -7 4 -10 -1 -6 -4 4 -15 2 -23 -5 -11
-8 -14 -8 -9 0 4 6 2 15 -4 19 -7 4 -9 3 -6 -3 4 -6 -3 -19 -16 -29 -19 -16
-20 -16 -8 -1 12 15 12 17 -2 11 -8 -3 -18 -12 -21 -21 -5 -12 -9 -13 -21 -3
-13 11 -14 10 -9 -5 6 -15 5 -16 -17 -5 -21 12 -23 12 -11 -2 11 -14 9 -16
-16 -14 -20 1 -28 -2 -25 -10 3 -8 -9 -15 -31 -19 -20 -4 -33 -12 -30 -17 4
-6 -4 -5 -16 2 -12 7 -20 8 -17 3 2 -4 -4 -17 -15 -28 -19 -20 -19 -20 -13 0
6 19 6 19 -8 3 -8 -10 -22 -18 -31 -18 -9 0 -16 -4 -16 -10 0 -5 -5 -10 -11
-10 -5 0 -7 4 -4 10 3 6 -1 7 -9 4 -9 -3 -14 -10 -11 -14 3 -4 -2 -11 -11 -14
-8 -3 -12 -2 -9 3 3 5 -8 3 -25 -5 -16 -9 -30 -18 -30 -20 0 -3 5 -2 12 2 7 4
8 3 4 -5 -4 -6 -13 -11 -19 -10 -7 1 -21 1 -32 0 -17 -1 -18 -3 -5 -11 13 -8
12 -10 -3 -10 -10 0 -16 -4 -13 -9 3 -5 -1 -14 -9 -21 -13 -11 -15 -10 -10 6
4 12 1 11 -6 -4 -8 -14 -18 -21 -27 -17 -13 5 -13 3 -1 -12 13 -15 12 -16 -8
-11 -16 4 -20 2 -16 -8 3 -8 -2 -17 -11 -20 -9 -3 -13 -10 -10 -15 5 -8 -9
-13 -28 -10 -5 0 -8 -6 -8 -14 0 -17 -11 -19 -28 -5 -9 7 -9 7 -2 -2 15 -17
12 -28 -6 -28 -9 0 -18 -9 -21 -20 -3 -11 -9 -17 -14 -14 -5 3 -9 0 -9 -6 0
-7 -7 -9 -16 -6 -15 6 -15 4 -3 -11 12 -15 12 -16 -3 -11 -11 5 -18 0 -21 -14
-3 -11 -10 -17 -16 -13 -6 3 -11 2 -11 -2 0 -5 -7 -18 -16 -29 -8 -10 -13 -12
-9 -4 3 8 0 7 -7 -4 -17 -25 -46 -57 -33 -36 8 13 8 13 -6 3 -9 -7 -19 -10
-23 -6 -4 4 -4 -1 0 -12 6 -14 4 -17 -9 -12 -10 4 -14 2 -11 -7 2 -7 -13 -29
-36 -49 -22 -21 -40 -35 -40 -30 0 4 -6 -1 -13 -12 -9 -12 -19 -15 -28 -10
-12 8 -12 6 -1 -8 12 -14 10 -17 -12 -23 -14 -3 -23 -10 -20 -15 3 -5 0 -9 -6
-9 -6 0 -8 -5 -4 -12 5 -9 2 -8 -9 1 -15 12 -17 12 -11 -2 6 -16 -28 -42 -40
-29 -4 3 -4 -1 -1 -9 3 -9 -3 -23 -15 -34 -11 -10 -20 -14 -20 -9 0 5 -8 -3
-18 -17 -9 -14 -25 -25 -34 -24 -11 2 -15 -2 -11 -11 3 -8 -2 -17 -11 -20 -9
-3 -13 -10 -10 -15 5 -8 -8 -12 -22 -6 -3 1 -12 -11 -20 -28 -11 -25 -13 -26
-8 -5 6 24 6 24 -9 5 -8 -11 -13 -24 -9 -29 3 -5 -2 -7 -10 -3 -11 4 -20 -3
-28 -24 -10 -23 -15 -27 -27 -18 -11 10 -12 9 -7 -5 4 -11 -1 -19 -17 -25 -13
-5 -20 -10 -16 -10 4 -1 -6 -14 -22 -30 -16 -16 -27 -32 -24 -35 6 -6 -13 -10
-31 -7 -5 1 -4 -4 2 -11 8 -11 6 -17 -8 -26 -11 -6 -17 -18 -14 -26 3 -7 -2
-20 -10 -29 -19 -19 -21 -31 -3 -22 6 4 -4 -8 -23 -26 -19 -18 -27 -29 -17
-26 9 4 17 2 17 -3 0 -5 -8 -11 -19 -15 -12 -4 -17 -13 -15 -31 2 -19 -1 -24
-12 -20 -8 3 -12 2 -9 -3 3 -5 1 -12 -5 -16 -6 -4 -7 -11 -4 -17 5 -8 1 -9
-11 -4 -14 5 -16 4 -6 -8 9 -11 8 -15 -4 -20 -8 -3 -15 -10 -15 -16 0 -6 5 -8
12 -4 7 4 8 3 4 -4 -4 -7 -13 -12 -21 -12 -8 0 -11 -7 -8 -19 3 -10 0 -22 -6
-25 -7 -5 -9 0 -5 11 5 15 4 16 -5 3 -15 -21 -14 -43 2 -34 6 4 3 -2 -7 -14
-21 -24 -32 -29 -20 -10 4 6 3 8 -4 5 -5 -4 -9 -15 -8 -25 2 -9 -5 -22 -14
-29 -11 -8 -16 -22 -14 -38 2 -19 -2 -25 -11 -21 -9 3 -12 -1 -10 -15 2 -11 0
-17 -6 -14 -8 6 -14 -17 -10 -39 1 -5 -5 -3 -14 4 -8 7 -18 10 -22 6 -3 -3 -1
-6 6 -6 8 0 11 -6 7 -16 -3 -8 -2 -12 4 -9 6 3 10 4 10 1 0 -3 -12 -13 -27
-21 -16 -9 -20 -14 -10 -11 9 3 17 3 17 0 0 -8 -29 -35 -34 -32 -2 2 -8 -1
-13 -6 -5 -5 -3 -6 5 -2 6 4 12 2 12 -3 0 -6 -5 -11 -11 -11 -5 0 -7 -4 -4
-10 3 -5 1 -10 -5 -10 -6 0 -9 -4 -6 -9 8 -12 -4 -42 -14 -36 -4 3 -11 -2 -14
-11 -4 -10 -2 -13 7 -9 6 4 2 -2 -11 -13 -15 -14 -18 -22 -10 -25 8 -4 7 -6
-4 -6 -9 -1 -20 -6 -24 -13 -5 -7 -3 -8 6 -3 8 5 11 3 8 -6 -3 -8 -11 -13 -18
-11 -10 2 -10 -1 1 -14 9 -12 9 -15 2 -10 -8 4 -13 2 -13 -7 0 -8 -7 -20 -15
-27 -9 -7 -14 -19 -11 -27 3 -8 -1 -16 -9 -19 -8 -4 -15 -16 -15 -28 0 -12 -6
-28 -12 -35 -7 -8 -8 -11 -2 -8 7 4 11 -4 10 -22 -1 -16 -5 -26 -10 -23 -5 3
-7 -2 -3 -11 4 -12 1 -17 -11 -18 -14 0 -14 -2 3 -9 11 -5 14 -9 7 -9 -8 -1
-11 -10 -8 -26 3 -14 1 -25 -4 -25 -4 0 -11 -7 -14 -16 -5 -14 -4 -15 8 -5 12
10 13 8 9 -11 -4 -13 -12 -27 -20 -31 -10 -6 -11 -12 -4 -20 14 -18 13 -26 -4
-43 -12 -12 -13 -20 -4 -36 8 -15 8 -19 0 -14 -6 4 -12 2 -12 -3 -1 -6 -2 -17
-3 -23 -1 -7 3 -19 8 -27 8 -11 8 -13 0 -8 -7 4 -14 -2 -17 -14 -4 -16 -3 -18
8 -9 11 9 12 7 8 -10 -3 -11 -10 -23 -16 -27 -6 -4 -7 -1 -2 8 8 12 6 12 -8 0
-20 -16 -22 -22 -6 -18 6 1 14 -4 17 -12 3 -10 0 -11 -9 -5 -12 6 -12 5 -1 -8
9 -11 10 -18 2 -23 -6 -3 -8 -10 -5 -15 3 -5 -3 -11 -12 -13 -16 -4 -16 -5 1
-6 20 -1 20 -1 0 -17 -10 -8 -13 -13 -6 -9 15 8 16 -11 1 -21 -8 -4 -7 -9 2
-15 9 -5 10 -9 2 -9 -6 0 -10 -13 -9 -30 1 -20 -3 -30 -12 -30 -7 0 -10 -5 -7
-10 4 -6 12 -8 18 -4 7 3 3 -2 -8 -11 -17 -14 -18 -17 -5 -25 11 -7 11 -10 2
-10 -7 0 -10 -4 -7 -10 3 -5 1 -10 -5 -10 -8 0 -7 -6 1 -21 8 -16 8 -20 0 -14
-8 4 -10 -2 -7 -19 3 -14 0 -28 -5 -31 -5 -4 -9 -11 -9 -16 0 -6 4 -7 10 -4 6
3 7 -1 4 -9 -3 -9 -13 -16 -21 -16 -8 0 -11 -5 -8 -10 4 -6 12 -7 18 -3 7 4 4
-6 -7 -21 -11 -17 -13 -25 -5 -20 11 6 12 5 2 -7 -10 -12 -10 -18 0 -29 10
-10 9 -11 -2 -5 -11 6 -13 3 -9 -13 4 -14 2 -20 -5 -15 -7 4 -8 0 -4 -12 4 -9
2 -25 -5 -33 -10 -12 -10 -14 0 -8 7 4 12 1 12 -9 0 -10 -5 -13 -12 -9 -7 4
-8 3 -4 -5 4 -6 12 -9 17 -6 9 6 13 -9 9 -30 -1 -5 4 -5 11 2 16 16 39 5 32
-15 -4 -15 -3 -15 6 -2 6 8 25 15 43 15 20 0 36 -6 40 -15 5 -11 7 -10 7 5 1
17 3 17 11 5 9 -13 10 -13 11 0 0 10 3 8 9 -5 l9 -20 0 20 c1 17 3 18 11 5 8
-12 12 -12 18 -2 7 9 15 10 35 3 20 -8 27 -7 28 2 0 6 4 3 9 -8 6 -13 9 -15 9
-5 1 9 11 15 25 15 13 0 22 -3 19 -7 -2 -5 1 -8 6 -8 6 0 11 5 11 10 0 18 20
11 21 -7 0 -15 2 -15 9 2 6 13 9 15 9 5 1 -13 3 -13 10 -1 7 11 10 10 14 -5 4
-18 5 -18 6 1 1 17 3 18 11 5 8 -12 12 -12 18 -2 7 9 15 10 35 3 20 -8 27 -7
28 2 0 6 4 3 9 -8 6 -13 9 -15 9 -5 1 9 11 15 25 15 13 0 22 -3 19 -7 -2 -5 1
-8 6 -8 6 0 11 5 11 10 0 18 20 11 21 -7 0 -15 2 -15 9 2 6 13 9 15 9 5 1 -13
3 -13 10 -1 7 11 10 10 14 -5 4 -18 5 -18 6 1 1 17 3 18 11 5 8 -11 12 -12 18
-3 10 15 54 5 46 -11 -3 -6 1 -3 9 6 13 16 15 16 32 0 14 -13 17 -14 13 -2 -5
12 6 15 57 15 35 0 61 -3 58 -7 -5 -10 6 -9 32 1 11 5 25 4 32 -1 9 -7 13 -6
13 3 0 11 2 11 10 -1 9 -13 10 -13 10 0 0 13 1 13 10 0 5 -8 10 -10 10 -5 0
11 91 12 109 1 6 -4 11 -1 11 6 0 9 3 9 10 -2 9 -13 10 -13 10 0 0 13 1 13 10
0 5 -8 10 -10 10 -5 0 11 91 12 109 1 6 -4 11 -1 11 6 0 9 3 9 10 -2 9 -13 10
-13 10 0 0 13 1 13 10 0 5 -8 10 -10 10 -5 0 11 97 12 107 1 10 -9 25 -7 19 3
-7 11 21 8 31 -4 4 -4 2 -5 -6 0 -10 6 -12 4 -6 -5 6 -10 11 -9 21 4 8 11 14
13 19 7 3 -6 11 -11 16 -11 6 0 8 3 6 8 -3 4 5 7 18 7 13 0 22 -2 20 -5 -4 -7
112 -3 123 4 4 2 26 1 49 -3 23 -5 48 -4 58 2 10 5 15 5 12 0 -6 -9 107 -8
123 2 5 3 11 1 15 -5 3 -5 11 -10 16 -10 6 0 7 6 3 13 -5 8 -2 8 9 -2 12 -9
17 -10 17 -2 0 7 5 9 10 6 6 -4 7 -12 3 -18 -5 -9 -3 -9 8 -1 8 6 24 14 37 17
18 4 21 3 13 -7 -8 -9 -6 -12 9 -11 11 1 23 5 27 10 5 4 2 5 -6 0 -10 -5 -12
-4 -7 4 4 6 11 9 15 7 4 -3 22 -8 40 -11 25 -4 31 -2 25 7 -6 10 -4 10 7 2 8
-6 23 -14 33 -18 16 -5 17 -4 6 9 -11 13 -10 14 4 9 9 -3 16 -11 16 -18 0 -6
5 -4 10 4 9 13 10 13 10 0 0 -13 1 -13 10 0 6 10 10 11 10 3 0 -7 5 -13 11
-13 5 0 8 4 5 8 -3 5 1 9 9 9 8 0 15 -4 15 -9 0 -4 5 -8 11 -8 5 0 7 5 3 11
-4 7 1 7 16 -1 15 -8 20 -8 16 -1 -4 6 -2 11 3 11 6 0 11 -6 11 -12 0 -8 3 -9
8 -3 9 13 72 14 72 1 0 -5 6 -2 13 9 10 13 16 15 21 6 4 -6 12 -9 17 -6 5 4 9
1 9 -4 0 -6 5 -11 11 -11 5 0 8 4 5 8 -3 5 1 9 9 9 8 0 15 -4 15 -9 0 -4 5 -8
11 -8 5 0 7 5 3 11 -4 7 1 7 16 -1 15 -8 20 -8 16 -1 -4 6 -2 11 3 11 6 0 11
-6 11 -12 0 -8 3 -9 8 -3 9 13 42 16 42 4 0 -5 9 -4 20 3 17 11 22 10 30 -2 6
-8 10 -10 10 -3 0 12 24 12 36 0 4 -4 13 -2 21 4 9 9 13 8 13 0 0 -6 5 -11 11
-11 5 0 7 6 3 13 -5 8 -2 8 9 -2 9 -7 17 -9 17 -4 0 5 7 10 15 10 8 0 15 -5
15 -11 0 -6 5 -5 12 2 14 14 32 16 24 4 -3 -5 1 -9 9 -9 8 0 12 4 9 9 -3 4 0
8 5 8 6 0 11 -4 11 -10 0 -5 5 -10 11 -10 5 0 7 6 3 13 -4 6 3 3 15 -7 22 -20
22 -20 15 0 -7 17 -6 18 11 4 11 -9 16 -10 11 -2 -4 6 -2 12 3 12 6 0 11 -4
11 -10 0 -5 5 -10 11 -10 5 0 7 6 3 13 -4 6 3 3 15 -7 22 -20 22 -20 15 0 -7
17 -6 18 11 4 11 -9 16 -10 11 -2 -4 6 -2 12 3 12 6 0 11 -4 11 -10 0 -5 5
-10 11 -10 5 0 7 6 3 13 -5 8 -2 8 9 -2 13 -10 17 -10 17 -1 0 9 4 9 17 -1 11
-10 14 -10 9 -1 -4 6 -2 12 3 12 6 0 11 -4 11 -10 0 -5 5 -10 11 -10 5 0 7 6
3 13 -4 6 3 3 15 -7 22 -20 22 -20 15 0 -7 17 -6 18 11 4 11 -9 16 -10 11 -2
-4 6 -2 12 3 12 6 0 11 -4 11 -10 0 -5 5 -10 11 -10 5 0 7 6 3 13 -5 8 -2 8 9
-2 13 -10 17 -10 17 -1 0 9 4 9 17 -1 11 -10 14 -10 9 -1 -4 6 -2 12 3 12 6 0
11 -4 11 -10 0 -5 5 -10 11 -10 5 0 7 6 3 13 -4 6 3 3 15 -7 22 -20 22 -20 15
0 -7 17 -6 18 11 4 11 -9 16 -10 11 -2 -4 6 -2 12 3 12 6 0 11 -4 11 -10 0 -5
5 -10 11 -10 5 0 7 6 3 13 -5 8 -2 8 9 -2 9 -7 17 -9 17 -4 0 5 9 9 21 9 15 0
19 -5 15 -21 -5 -19 -4 -19 9 -2 13 18 14 18 24 0 8 -14 10 -15 11 -3 0 9 8
16 18 17 25 2 45 7 60 16 7 5 14 2 18 -7 3 -9 10 -16 16 -16 5 0 7 4 3 9 -3 6
4 9 15 8 11 -1 20 -5 20 -10 0 -4 5 -5 10 -2 6 4 8 10 6 14 -3 3 4 7 14 7 14
0 16 -3 8 -13 -15 -18 -2 -16 30 4 26 17 27 17 12 -2 -16 -20 -18 -20 37 2 10
4 14 2 10 -4 -9 -15 17 -10 37 6 13 11 17 11 22 -3 3 -9 10 -16 16 -16 5 0 7
4 3 9 -3 6 4 9 15 8 11 -1 20 -5 20 -10 0 -4 5 -5 10 -2 6 4 8 10 6 14 -3 3 4
7 14 7 14 0 16 -3 8 -13 -15 -18 -2 -16 30 4 26 17 27 17 12 -2 -16 -20 -18
-20 37 2 10 4 14 2 10 -4 -9 -15 17 -10 37 6 13 11 17 11 22 -3 3 -9 10 -16
16 -16 5 0 7 4 3 9 -3 6 4 9 15 8 11 -1 20 -5 20 -10 0 -4 5 -5 10 -2 6 4 8
10 6 14 -3 3 4 7 14 7 14 0 16 -3 8 -13 -15 -18 -2 -16 30 4 26 17 27 17 12
-2 -16 -20 -18 -20 37 2 10 4 14 2 10 -4 -9 -15 17 -10 37 6 13 11 17 11 22
-3 3 -9 10 -16 16 -16 5 0 7 4 3 9 -3 6 4 9 15 8 11 -1 20 -5 20 -10 0 -4 5
-5 10 -2 6 4 8 10 6 14 -3 3 4 7 14 7 14 0 16 -3 8 -13 -15 -18 -2 -16 30 4
26 17 27 17 12 -2 -16 -20 -18 -20 37 2 10 4 14 2 10 -4 -9 -15 17 -10 37 6
13 11 17 11 22 -3 3 -9 10 -16 16 -16 5 0 7 4 3 9 -3 6 4 9 15 8 11 -1 20 -5
20 -10 0 -4 5 -5 10 -2 6 4 8 10 6 14 -3 3 4 7 14 7 14 0 16 -3 8 -13 -15 -18
-2 -16 30 4 26 17 26 17 13 0 -17 -22 -8 -22 27 0 26 17 26 17 13 0 -17 -22
-8 -22 27 0 26 17 27 17 12 -2 -16 -20 -18 -20 37 2 10 4 14 2 10 -4 -9 -15
17 -11 36 5 12 10 17 10 23 1 4 -8 3 -9 -4 -5 -7 4 -12 2 -12 -3 0 -14 13 -14
28 1 9 9 12 9 12 1 0 -14 29 -10 62 8 21 11 22 11 9 -4 -17 -22 -7 -22 27 0
26 17 27 17 12 -2 -16 -20 -17 -20 39 3 10 4 12 1 6 -9 -7 -12 -6 -12 7 -1 13
10 17 10 21 0 4 -10 6 -10 6 0 1 6 9 12 19 12 14 0 15 -2 2 -10 -8 -5 -10 -10
-5 -10 6 0 17 4 25 10 9 6 20 5 29 -3 12 -9 13 -9 7 0 -4 7 -2 13 3 13 6 0 11
-4 11 -10 0 -5 5 -10 11 -10 5 0 7 6 3 13 -6 9 -5 9 7 0 12 -10 18 -10 27 -1
9 9 12 9 12 0 0 -7 5 -12 11 -12 5 0 8 3 6 8 -10 14 78 9 89 -6 9 -12 13 -13
19 -2 6 9 4 11 -6 5 -12 -7 -12 -5 -1 6 8 9 15 10 20 4 9 -13 35 -18 27 -5 -3
5 -1 10 4 10 6 0 11 -5 11 -11 0 -6 5 -7 13 -2 18 12 67 12 60 0 -4 -6 -1 -7
7 -2 24 15 74 14 86 -3 9 -12 13 -12 19 -2 6 9 4 11 -6 5 -12 -7 -12 -5 -1 6
8 9 15 10 20 4 9 -13 35 -18 27 -5 -3 5 -1 10 4 10 6 0 11 -5 11 -11 0 -6 5
-7 13 -2 18 12 67 12 60 0 -4 -6 -1 -7 7 -2 24 15 74 14 86 -3 9 -12 13 -12
19 -2 6 9 4 11 -6 5 -12 -7 -12 -5 -1 6 8 9 15 10 20 4 9 -13 35 -18 27 -5 -3
5 -1 10 4 10 6 0 11 -5 11 -11 0 -6 5 -7 13 -2 15 9 68 13 62 4 -2 -4 5 -7 15
-7 10 0 16 4 14 8 -3 4 0 8 5 8 6 0 11 -6 11 -12 0 -9 4 -8 10 2 5 8 10 10 10
4 0 -7 7 -14 14 -17 10 -4 13 -1 10 7 -3 7 2 13 10 13 8 0 13 -3 11 -7 -2 -4
2 -7 10 -7 8 0 12 4 9 9 -3 4 0 8 5 8 6 0 11 -8 12 -17 0 -15 2 -15 7 -3 9 18
52 25 52 7 0 -8 4 -7 10 3 5 8 10 10 10 4 0 -7 7 -14 14 -17 10 -4 13 -1 10 7
-3 7 2 13 10 13 8 0 13 -3 11 -7 -2 -4 2 -7 10 -7 8 0 12 4 9 9 -3 4 0 8 5 8
6 0 11 -8 12 -17 0 -15 2 -15 7 -3 9 18 44 23 54 7 6 -9 8 -8 8 2 0 11 4 9 14
-5 12 -16 17 -17 28 -6 11 11 10 12 -4 7 -10 -4 -18 -3 -18 1 0 5 20 9 45 10
25 0 45 -2 45 -6 0 -4 7 -7 15 -7 8 0 12 4 9 9 -3 4 0 8 5 8 6 0 11 -6 11 -12
0 -9 4 -8 10 2 8 12 10 12 11 -5 0 -15 2 -16 7 -5 8 17 92 24 92 8 0 -5 6 -6
13 -1 18 12 67 12 60 0 -4 -6 -1 -7 7 -2 21 13 80 15 80 3 0 -6 7 -5 17 3 13
11 17 11 21 1 3 -10 7 -10 18 -1 12 10 18 8 29 -7 10 -13 14 -14 13 -4 -2 11
12 14 72 15 41 0 81 -4 88 -9 7 -5 15 -6 19 -2 3 3 0 6 -8 7 -8 0 -5 4 6 8 11
5 25 5 30 0 7 -5 11 -1 11 11 0 10 -5 16 -11 13 -5 -2 1 5 15 17 14 12 19 19
13 15 -7 -3 -13 -1 -13 4 0 6 5 11 11 11 6 0 3 7 -5 16 -19 19 -21 28 -3 18 9
-6 9 -4 -1 8 -10 13 -10 18 -1 24 9 5 7 11 -6 21 -13 9 -14 13 -5 13 9 0 8 5
-6 16 -15 13 -16 15 -2 10 12 -3 15 -1 11 9 -3 8 -9 13 -13 10 -4 -2 -6 9 -4
26 2 18 0 28 -6 24 -6 -3 -10 -2 -10 4 0 5 6 11 13 14 9 3 7 9 -5 24 -10 11
-18 24 -18 29 0 5 5 2 11 -6 9 -13 10 -13 6 1 -3 9 0 23 6 30 10 11 9 11 -5 1
-11 -9 -18 -10 -23 -2 -3 5 0 10 7 10 8 0 9 3 3 8 -5 4 -11 16 -12 27 -5 43
-9 61 -17 74 -6 10 -5 12 2 7 7 -4 12 -2 12 3 0 6 -6 11 -12 11 -9 0 -8 4 2
10 11 7 12 10 2 10 -9 0 -12 10 -10 29 1 16 -2 35 -8 42 -21 27 -28 42 -16 35
13 -8 17 16 5 28 -4 3 -8 17 -10 29 -2 17 -1 19 6 7 5 -8 7 -18 4 -24 -3 -5
-1 -6 5 -2 8 5 8 13 0 31 -6 13 -15 22 -21 18 -5 -3 -5 2 1 13 8 15 7 24 -6
38 -16 18 -16 19 2 12 20 -7 20 -7 0 15 -10 12 -13 19 -6 15 6 -4 12 -2 12 3
0 6 -7 11 -15 11 -18 0 -19 12 -3 28 9 9 9 12 -1 12 -11 0 -11 3 0 17 8 9 9
14 3 10 -15 -9 -25 16 -14 34 6 8 4 16 -2 20 -7 4 -13 15 -14 23 -1 9 1 14 6
11 11 -7 7 22 -5 32 -4 4 -5 2 0 -6 5 -9 4 -12 -3 -8 -5 4 -9 18 -7 32 1 14
-2 28 -7 31 -5 3 -6 14 -3 24 3 10 1 21 -4 25 -7 3 -7 14 -1 30 7 18 6 26 -4
32 -8 4 -16 17 -18 28 -1 11 -10 27 -18 35 -9 8 -10 11 -3 6 10 -6 12 -4 7 8
-3 9 -14 16 -23 16 -14 0 -14 2 -1 10 13 8 13 10 -2 10 -9 0 -20 5 -24 12 -4
7 -3 8 4 4 8 -5 10 -2 6 8 -3 9 -11 13 -18 9 -6 -4 -5 1 3 10 9 12 10 17 2 17
-7 0 -9 5 -5 12 4 7 3 8 -4 4 -6 -4 -16 4 -23 16 -10 20 -10 22 2 13 8 -5 7
-3 -3 7 -10 9 -18 24 -18 33 0 9 -4 14 -9 11 -5 -3 -11 1 -14 9 -4 10 -1 12
11 9 9 -3 6 2 -8 10 -16 10 -19 15 -10 16 12 0 13 2 1 9 -8 5 -10 14 -5 22 6
11 5 12 -7 2 -15 -12 -17 -9 -21 44 -1 6 -8 9 -16 5 -9 -3 -13 -1 -9 5 4 6 -2
22 -13 35 -11 14 -16 28 -13 32 3 3 1 6 -6 6 -8 0 -11 8 -8 20 3 13 0 20 -9
20 -8 0 -11 6 -7 17 5 12 3 14 -8 8 -12 -7 -12 -6 1 11 8 10 10 16 6 12 -5 -4
-17 2 -27 14 -24 27 -24 34 -1 17 9 -7 3 2 -15 20 -20 20 -30 38 -26 48 4 11
2 14 -5 9 -8 -5 -10 -1 -5 10 4 12 3 15 -5 10 -7 -4 -12 -3 -12 3 0 5 6 12 13
14 7 3 4 6 -7 6 -13 1 -16 6 -12 18 4 10 4 14 0 10 -4 -4 -14 2 -22 14 -8 11
-11 23 -8 26 3 3 -1 11 -10 18 -9 6 -17 23 -17 37 -1 14 -4 25 -7 24 -3 -2
-14 6 -24 17 -14 14 -15 19 -4 15 8 -4 15 -1 15 7 0 7 -7 12 -16 11 -11 -1
-18 11 -22 34 -4 19 -7 28 -9 20 -1 -8 -6 -2 -10 14 -5 16 -7 33 -4 38 3 4 -3
5 -12 1 -13 -5 -16 -3 -11 10 3 9 3 16 -1 16 -20 -3 -32 3 -32 16 0 8 -7 15
-16 15 -10 0 -14 6 -11 14 4 9 0 12 -13 9 -10 -3 -21 0 -24 6 -5 7 0 9 11 6
10 -3 3 2 -14 11 -18 10 -33 22 -33 26 0 5 5 6 10 3 16 -10 11 1 -7 16 -11 10
-14 10 -9 2 4 -7 2 -13 -3 -13 -6 0 -11 6 -11 14 0 7 -7 19 -15 26 -8 7 -12
17 -8 23 3 5 1 7 -5 3 -6 -3 -14 -1 -17 5 -4 5 -14 8 -22 5 -8 -3 -11 -1 -8 4
3 6 -2 10 -12 10 -14 0 -15 2 -5 9 10 6 7 10 -13 15 -18 5 -25 12 -21 21 3 8
0 17 -6 21 -7 4 -8 3 -4 -4 10 -17 -9 -15 -24 3 -6 8 -9 19 -6 24 4 5 1 13 -5
17 -8 4 -9 3 -5 -4 4 -7 1 -12 -9 -12 -9 0 -14 4 -10 9 7 12 -35 52 -46 45 -4
-2 -11 1 -15 7 -5 8 -3 9 7 4 12 -8 12 -6 0 8 -8 10 -16 15 -19 13 -2 -3 -11
2 -20 10 -13 14 -13 17 -1 26 10 7 7 7 -10 3 -19 -6 -23 -4 -18 8 4 11 2 14
-9 10 -9 -3 -14 1 -14 13 0 9 -3 15 -6 11 -8 -7 -48 32 -57 57 -4 11 -13 16
-22 12 -8 -3 -15 -1 -15 5 0 5 -12 22 -27 37 -15 15 -20 18 -12 7 13 -18 13
-19 -3 -6 -10 7 -18 23 -19 35 0 12 -3 15 -6 8 -3 -9 -14 -3 -34 19 -16 18
-29 29 -29 25 0 -4 -6 -1 -14 6 -8 7 -12 16 -9 21 2 4 -1 7 -7 7 -6 0 -8 4 -5
10 3 6 -1 7 -10 4 -11 -5 -18 0 -22 15 -3 14 -11 20 -20 17 -8 -3 -11 -1 -8 4
3 6 1 10 -4 10 -6 0 -11 7 -11 15 0 8 -6 14 -12 13 -7 -2 -12 3 -10 11 2 8 -3
11 -12 8 -11 -4 -14 0 -11 15 4 17 2 19 -7 10 -18 -18 -27 -14 -23 9 3 13 0
19 -8 16 -7 -2 -18 8 -25 22 -7 15 -10 18 -7 6 5 -19 5 -20 -10 -1 -8 10 -12
23 -8 29 3 6 1 7 -5 4 -14 -9 -42 2 -42 17 0 7 -10 12 -22 11 -13 -1 -33 5
-45 12 -12 8 -28 11 -34 7 -8 -4 -9 -3 -5 4 4 7 1 12 -9 12 -9 0 -14 4 -11 9
3 5 -1 12 -10 15 -10 4 -13 2 -8 -6 5 -8 2 -9 -10 -5 -10 4 -20 7 -22 7 -2 0
-4 5 -4 11 0 5 5 7 12 3 7 -4 8 -3 4 5 -6 9 -11 9 -22 0 -11 -9 -14 -8 -14 4
0 9 -4 19 -10 22 -6 3 -7 -1 -4 -9 3 -9 1 -16 -5 -16 -6 0 -11 5 -11 11 0 6
-7 9 -15 5 -9 -3 -15 0 -15 8 0 7 -7 13 -15 14 -8 1 -22 3 -30 4 -8 1 -15 5
-15 10 0 4 -9 8 -20 8 -11 0 -20 5 -20 11 0 5 -4 7 -10 4 -5 -3 -10 -2 -10 4
0 6 -6 8 -13 5 -7 -2 -21 3 -32 12 -11 8 -14 12 -6 8 10 -5 12 -3 7 5 -6 9
-11 9 -24 -1 -9 -8 -13 -8 -9 -2 4 7 0 15 -9 18 -9 4 -13 2 -8 -5 5 -8 1 -8
-13 0 -11 6 -24 7 -29 3 -5 -4 -2 1 5 11 8 9 11 20 7 24 -3 3 -6 1 -6 -7 0
-10 -4 -10 -17 1 -14 12 -15 12 -9 0 6 -9 1 -8 -16 3 -14 9 -28 13 -31 9 -4
-3 -7 -1 -7 6 0 8 -7 11 -15 7 -14 -5 -20 5 -16 27 1 5 -3 6 -9 2 -6 -3 -7
-12 -3 -18 4 -7 -1 -6 -11 2 -13 11 -14 16 -4 22 7 5 8 9 3 9 -6 0 -16 -5 -23
-12 -9 -9 -12 -9 -12 0 0 7 -6 11 -12 9 -7 -1 -12 4 -11 11 2 6 -2 12 -7 12
-6 0 -10 -5 -10 -10 0 -6 -6 -5 -14 2 -8 7 -11 18 -8 23 2 6 -1 4 -9 -2 -19
-18 -32 -16 -25 3 6 15 4 15 -11 3 -15 -12 -16 -12 -10 5 6 16 5 17 -8 6 -12
-10 -15 -10 -15 1 0 11 -2 11 -10 -1 -8 -13 -10 -13 -10 -1 0 11 -3 12 -11 4
-9 -9 -18 -7 -37 5 -15 9 -23 12 -20 7 4 -7 -4 -11 -21 -10 -20 0 -27 4 -23
14 4 10 1 12 -8 6 -22 -14 -62 -15 -57 -1 3 6 -3 12 -13 12 -10 0 -16 -4 -14
-8 10 -15 -9 -8 -23 10 -8 9 -12 11 -8 5 3 -7 1 -13 -4 -13 -6 0 -11 6 -11 13
0 7 -3 8 -8 2 -8 -12 -54 -16 -47 -5 3 4 -2 11 -11 14 -8 3 -13 2 -10 -2 3 -5
-8 -6 -24 -4 -19 3 -27 8 -23 16 4 6 -1 5 -10 -3 -13 -10 -17 -10 -17 -1 0 10
-3 10 -14 1 -9 -8 -16 -8 -20 -2 -4 6 -14 7 -23 4 -10 -4 -14 -2 -10 4 4 6 0
13 -8 16 -9 4 -12 1 -8 -9 4 -10 0 -12 -11 -8 -9 3 -14 9 -11 13 2 4 -2 8 -9
8 -8 0 -12 -7 -9 -16 4 -13 2 -13 -10 2 -15 18 -33 24 -23 8 4 -5 -2 -8 -11
-6 -10 1 -17 8 -16 13 2 6 -4 9 -12 6 -9 -4 -21 -2 -28 3 -11 9 -44 10 -72 3
-23 -6 -46 1 -39 11 4 7 -2 7 -17 -1 -19 -11 -24 -10 -36 6 -7 10 -13 13 -13
8 0 -12 -56 -12 -67 0 -5 5 -2 6 6 1 10 -5 12 -4 7 3 -5 8 -13 9 -26 2 -13 -7
-21 -6 -30 5 -10 12 -16 13 -26 4 -11 -9 -14 -8 -14 1 0 8 -4 9 -12 3 -7 -5
-19 -8 -25 -7 -7 1 -18 2 -24 3 -5 0 -7 7 -4 14 4 6 -1 3 -9 -7 -14 -17 -16
-18 -16 -3 0 9 -4 17 -10 17 -5 0 -6 -7 -3 -17z m-32 -21 c-3 -3 -11 0 -18 7
-9 10 -8 11 6 5 10 -3 15 -9 12 -12z m-895 -132 c0 -5 -5 -10 -11 -10 -5 0 -7
5 -4 10 3 6 8 10 11 10 2 0 4 -4 4 -10z m1091 -32 c3 -5 10 -8 15 -7 5 1 15 1
23 0 11 -1 11 -4 0 -18 -10 -12 -11 -15 -1 -9 7 4 20 2 30 -6 16 -12 16 -11 2
6 -14 18 -14 19 8 7 12 -7 20 -16 18 -20 -3 -4 1 -17 10 -27 14 -18 15 -18 4
4 -7 15 -7 22 0 22 5 0 10 -5 10 -11 0 -8 6 -7 17 2 15 12 16 12 10 -5 -5 -13
-3 -17 6 -13 8 3 14 0 14 -7 0 -18 -115 -11 -146 8 -11 7 -13 5 -8 -8 7 -19
-3 -15 -38 13 -18 15 -19 15 -6 -2 12 -15 12 -17 -3 -11 -16 6 -20 17 -17 43
2 8 -3 10 -11 6 -10 -6 -11 -5 0 6 6 7 12 21 12 32 0 14 5 17 23 11 12 -4 25
-11 28 -16z m412 -11 c4 3 16 -5 27 -18 l21 -24 -12 25 -12 25 23 -20 c13 -11
20 -14 15 -6 -6 11 -4 13 11 6 10 -4 29 -8 41 -8 13 1 21 -2 18 -6 -2 -4 2 -8
10 -8 8 0 12 3 10 7 -2 4 2 7 10 7 8 0 12 -3 10 -7 -2 -4 9 -7 25 -8 16 0 37
-5 46 -10 16 -9 15 -10 -4 -16 -12 -4 -22 -12 -22 -18 0 -7 -5 -6 -14 1 -11 9
-16 9 -22 0 -5 -8 -3 -9 6 -4 9 5 11 4 6 -3 -4 -7 -21 -12 -37 -12 -22 0 -28
4 -23 13 5 8 2 8 -9 -2 -11 -8 -17 -9 -17 -3 0 6 -7 9 -15 5 -9 -3 -15 -2 -14
3 4 21 -2 28 -11 14 -8 -13 -10 -13 -10 2 0 12 -6 15 -22 10 -16 -4 -19 -2
-13 8 6 10 4 12 -9 7 -10 -4 -23 1 -33 13 -9 10 -21 16 -27 13 -6 -4 -5 1 3
10 9 12 17 14 26 7 6 -5 15 -7 18 -3z m-1823 -77 c0 -5 -5 -10 -11 -10 -5 0
-7 5 -4 10 3 6 8 10 11 10 2 0 4 -4 4 -10z m2331 -14 c6 3 18 2 27 -2 9 -4 19
-8 22 -9 37 -13 60 -27 55 -34 -3 -5 0 -13 6 -17 8 -4 9 -3 5 4 -4 7 -1 12 8
12 8 0 18 -5 22 -12 5 -7 3 -8 -6 -3 -8 5 -11 4 -7 -2 4 -6 18 -9 32 -7 17 1
25 -2 22 -9 -3 -7 -10 -11 -17 -9 -7 1 -18 -3 -26 -9 -13 -11 -19 -5 -14 16 1
6 -2 7 -6 3 -4 -4 -14 -2 -23 5 -14 10 -14 10 -3 -5 9 -11 10 -18 2 -23 -5 -3
-10 -1 -10 6 0 7 -10 9 -25 7 -13 -3 -22 -2 -20 2 3 4 -6 10 -20 12 -16 4 -22
1 -18 -6 4 -6 0 -5 -9 2 -13 10 -17 10 -21 0 -4 -9 -6 -7 -6 4 -1 9 -6 20 -13
24 -7 4 -8 3 -4 -4 4 -7 1 -12 -8 -12 -9 0 -16 5 -16 10 0 6 -5 10 -11 10 -5
0 -7 -4 -4 -10 3 -5 0 -7 -8 -4 -16 6 -19 36 -3 31 6 -2 17 3 24 12 8 9 11 11
8 5 -3 -6 1 -11 8 -11 9 0 12 7 8 16 -5 14 -4 14 12 2 9 -8 16 -10 15 -5 -3
17 3 29 8 16 2 -6 9 -9 14 -6z m209 -95 c0 -13 -36 -20 -51 -9 -11 8 -10 9 3
4 10 -3 20 -1 23 4 8 12 25 13 25 1z m-1146 -23 c-6 -9 -3 -9 9 1 19 15 52 7
41 -10 -4 -8 -3 -9 5 -5 6 4 9 12 6 17 -4 5 -1 9 4 9 6 0 11 -4 11 -8 0 -5 7
-9 15 -9 8 0 15 3 15 7 0 3 9 6 20 6 13 0 19 -5 15 -14 -3 -7 0 -10 6 -7 5 4
18 1 27 -7 15 -11 16 -11 4 3 -10 14 -10 18 3 23 9 3 13 2 10 -4 -7 -11 3 -13
58 -10 25 1 37 -3 37 -12 0 -8 3 -9 8 -2 4 6 21 10 38 10 24 -1 30 -5 30 -23
0 -12 -4 -19 -8 -17 -5 3 -15 -2 -24 -10 -9 -9 -21 -13 -27 -9 -7 3 -9 3 -5
-2 10 -10 -11 -37 -23 -29 -5 3 -9 0 -9 -6 0 -6 -4 -9 -9 -6 -5 3 -12 -1 -15
-10 -3 -8 -11 -12 -16 -9 -6 4 -9 1 -8 -7 2 -9 -7 -13 -29 -12 -18 0 -30 -3
-27 -8 3 -4 10 -6 15 -3 5 4 9 -1 9 -9 0 -10 -7 -13 -21 -11 -15 3 -19 0 -15
-10 3 -9 0 -12 -10 -8 -9 3 -14 -1 -14 -12 0 -9 -4 -14 -9 -11 -5 3 -14 -1
-21 -9 -8 -9 -21 -13 -34 -10 -16 5 -18 4 -6 -4 13 -9 13 -12 1 -23 -10 -10
-12 -10 -7 0 4 6 3 12 -2 12 -6 0 -13 -7 -16 -16 -3 -9 -13 -14 -21 -11 -10 4
-12 1 -8 -11 6 -14 4 -15 -9 -4 -13 10 -18 10 -24 1 -4 -8 -3 -9 4 -5 7 4 12
3 12 -3 0 -5 -8 -9 -18 -8 -19 1 -22 22 -7 47 5 9 4 15 -3 18 -7 2 -12 8 -12
13 0 6 4 8 8 5 4 -2 8 4 8 15 0 10 -3 19 -7 19 -4 0 -6 8 -4 18 2 9 4 19 4 22
1 3 6 -2 11 -10 6 -9 10 -10 10 -3 0 7 -7 16 -16 21 -11 6 -13 11 -5 16 6 4
11 13 11 19 0 7 -4 6 -10 -3 -8 -12 -10 -11 -7 5 4 28 17 46 28 40 15 -10 10
2 -8 16 -11 10 -14 10 -9 2 4 -7 2 -13 -3 -13 -14 0 -14 17 -1 25 6 4 8 11 5
16 -4 5 -1 9 5 9 6 0 9 4 6 9 -4 5 0 12 6 14 22 9 29 7 22 -5z m1183 6 c-3 -3
-12 -4 -19 -1 -8 3 -5 6 6 6 11 1 17 -2 13 -5z m-571 -79 c8 -10 14 -15 14
-11 0 4 13 -1 29 -10 17 -10 28 -21 25 -26 -3 -4 4 -8 16 -8 12 0 18 -4 15
-10 -3 -5 -1 -10 5 -10 6 0 8 -5 4 -11 -4 -7 1 -7 16 1 20 11 21 10 15 -12 -7
-21 -7 -22 10 -8 11 8 16 10 12 4 -3 -6 8 -16 28 -24 22 -9 32 -19 30 -30 -2
-9 3 -17 10 -17 8 0 12 5 8 11 -3 6 5 0 18 -14 13 -14 20 -19 14 -11 -9 12 -7
12 12 1 12 -8 20 -17 17 -21 -2 -4 4 -10 15 -14 28 -9 62 -41 53 -51 -4 -4 2
-2 12 6 13 10 17 10 12 3 -4 -9 -1 -13 9 -13 12 0 15 -5 11 -16 -5 -13 -3 -14
7 -6 10 8 24 2 59 -28 25 -22 49 -36 54 -32 5 4 3 0 -4 -10 -10 -12 -10 -18
-1 -24 8 -4 9 -3 5 4 -4 7 -1 12 8 12 8 0 18 -5 22 -12 5 -7 3 -8 -6 -3 -9 5
-11 4 -6 -4 4 -6 16 -9 27 -6 11 4 19 2 19 -5 0 -6 -4 -8 -10 -5 -5 3 -10 -1
-10 -9 0 -19 -16 -21 -23 -3 -4 9 -8 8 -16 -3 -7 -10 -11 -11 -11 -2 0 6 -5
12 -11 12 -5 0 -7 -4 -4 -10 3 -6 -1 -7 -9 -4 -9 3 -13 11 -10 18 3 6 -1 4 -8
-5 -12 -14 -15 -15 -27 -2 -10 12 -15 12 -21 3 -4 -7 -13 -9 -20 -5 -6 4 -27
7 -47 7 -22 0 -31 3 -23 8 8 5 4 8 -13 7 -14 -1 -23 -5 -20 -9 2 -5 -1 -8 -6
-8 -6 0 -11 4 -11 9 0 5 -7 11 -14 14 -10 4 -13 1 -9 -9 5 -13 1 -13 -23 -2
-16 6 -35 17 -43 22 -11 8 -13 8 -7 -1 5 -9 -1 -13 -23 -13 -16 0 -32 6 -34
13 -3 6 -6 3 -6 -8 -1 -17 -3 -17 -11 -5 -8 12 -10 12 -10 1 0 -11 -3 -11 -15
-1 -8 7 -12 17 -8 23 3 6 1 7 -6 3 -6 -4 -9 -11 -6 -16 3 -5 -4 -8 -15 -7 -11
1 -20 5 -20 10 0 6 -5 6 -12 1 -19 -14 -48 -11 -58 6 -8 12 -10 11 -10 -5 0
-16 -2 -17 -9 -5 -6 8 -7 19 -4 25 4 5 -2 2 -13 -7 -13 -12 -24 -14 -34 -8
-21 14 -32 12 -24 -2 4 -7 -3 -4 -16 7 -13 11 -20 14 -15 6 6 -11 4 -13 -8 -8
-10 4 -17 1 -17 -6 0 -8 -3 -7 -9 2 -5 8 -19 15 -30 16 -11 1 -18 -2 -15 -7 3
-4 0 -8 -5 -8 -6 0 -11 5 -11 10 0 6 -8 10 -17 8 -10 -2 -17 3 -15 10 3 17 -3
15 -19 -5 -12 -14 -12 -16 0 -8 10 5 12 4 7 -4 -6 -9 -11 -9 -22 0 -8 6 -25 9
-39 7 -13 -3 -22 -2 -20 3 3 4 1 10 -5 14 -5 3 -10 -1 -10 -9 0 -10 -6 -13
-15 -10 -8 4 -12 10 -9 15 3 5 0 9 -5 9 -6 0 -11 -4 -11 -8 0 -12 -62 -8 -85
6 -11 6 -14 12 -7 12 7 0 10 5 6 12 -4 6 -3 8 3 5 6 -4 23 5 38 19 15 14 33
23 41 20 9 -3 11 0 7 12 -6 15 -5 15 10 3 15 -12 17 -12 11 4 -6 14 -4 16 6
10 10 -6 12 -4 6 10 -5 15 -4 16 9 5 12 -10 15 -10 15 4 0 19 16 21 24 4 3 -7
3 -3 0 9 -4 19 -2 22 12 16 12 -4 15 -3 10 6 -5 8 -1 14 13 18 12 3 21 10 21
15 0 5 5 6 10 3 6 -3 10 -1 10 4 0 6 7 11 16 11 9 0 12 5 8 12 -5 7 0 9 14 6
16 -5 19 -2 14 11 -5 14 -3 14 11 3 14 -12 16 -11 12 6 -3 17 1 20 23 16 15
-2 22 -1 15 3 -8 6 -4 15 13 30 13 12 24 19 24 15 0 -3 7 3 16 14 8 10 13 14
10 8 -3 -6 1 -11 8 -11 9 0 12 7 8 16 -5 14 -4 14 13 1 11 -9 16 -10 11 -2
-19 32 27 39 50 7z m331 -14 c25 4 43 -3 44 -18 0 -15 2 -15 9 2 6 13 9 15 9
5 1 -13 2 -13 11 0 8 12 10 12 10 1 0 -8 7 -11 20 -8 13 3 20 0 20 -10 0 -8 5
-11 10 -8 6 4 7 12 3 18 -3 7 2 5 13 -4 10 -9 26 -19 34 -23 8 -4 7 -1 -3 7
-17 14 -16 15 8 13 14 0 23 -6 21 -11 -2 -6 4 -11 14 -11 10 0 17 3 14 7 -7
11 23 4 39 -9 8 -7 23 -9 32 -5 14 5 16 3 11 -8 -4 -8 0 -5 8 5 14 17 16 18
16 3 0 -14 4 -15 27 -6 15 6 24 7 20 3 -4 -4 2 -14 14 -22 16 -11 23 -12 32
-3 9 9 8 11 -4 6 -10 -4 -20 -2 -24 4 -10 18 32 7 57 -15 15 -13 19 -14 10 -2
-11 14 -11 16 7 11 12 -3 21 -9 21 -13 0 -10 20 -8 38 4 8 5 21 1 34 -11 12
-10 19 -13 15 -7 -3 6 0 11 7 11 9 0 12 -7 8 -16 -5 -14 -3 -14 11 -2 16 12
22 8 18 -12 -1 -5 3 -6 9 -2 6 3 8 11 5 16 -4 5 -1 9 4 9 6 0 11 -6 12 -12 0
-7 2 -21 4 -31 2 -12 -1 -17 -10 -13 -10 3 -12 -2 -9 -20 2 -13 1 -23 -3 -22
-5 2 -9 -1 -10 -5 -1 -5 -10 -15 -20 -24 -10 -8 -13 -12 -6 -9 8 5 8 0 0 -18
-7 -13 -14 -23 -18 -21 -3 2 -13 -10 -23 -28 -13 -24 -13 -27 -2 -13 9 11 16
16 16 10 0 -5 -14 -24 -31 -41 -17 -19 -25 -33 -17 -34 10 0 10 -2 0 -6 -6 -2
-9 -9 -6 -15 4 -6 -2 -5 -15 1 -18 10 -20 9 -15 -6 2 -10 -1 -8 -7 5 -7 12
-20 22 -31 22 -10 0 -18 5 -18 11 0 5 -4 8 -9 5 -9 -6 -26 22 -22 37 1 5 -3 6
-9 2 -8 -5 -7 -12 2 -23 12 -15 11 -16 -4 -3 -10 7 -18 20 -18 28 0 8 -5 11
-10 8 -6 -4 -23 7 -39 24 -16 17 -37 31 -46 31 -12 0 -15 5 -11 17 4 10 4 14
0 10 -4 -4 -14 -1 -23 6 -14 11 -15 10 -2 -8 7 -11 2 -8 -12 7 -17 19 -27 23
-31 15 -4 -7 -5 -3 -2 9 3 17 -1 20 -21 18 -18 -2 -23 1 -19 12 3 8 2 13 -3
10 -5 -3 -14 1 -21 10 -7 8 -19 13 -27 10 -11 -5 -11 -1 -2 17 9 18 9 20 -2
10 -18 -17 -30 -16 -23 1 4 11 0 13 -15 9 -17 -4 -20 -2 -15 11 4 9 3 16 -2
15 -23 -4 -45 2 -39 11 3 6 -2 10 -12 10 -15 0 -16 2 -3 10 12 8 9 10 -11 10
-22 0 -28 5 -31 29 -4 26 -2 29 13 20 10 -5 22 -9 26 -8z m-49 -22 c-3 -8 -7
-3 -11 10 -4 17 -3 21 5 13 5 -5 8 -16 6 -23z m857 -176 c-5 -15 -4 -16 6 -5
19 18 29 15 29 -9 0 -11 5 -17 10 -14 6 3 10 1 10 -4 0 -6 6 -11 14 -11 8 0
18 -9 21 -20 4 -11 11 -18 16 -15 5 4 9 -1 9 -10 0 -10 5 -13 12 -9 7 5 9 2 5
-9 -4 -11 -2 -14 7 -11 8 3 20 -4 28 -15 8 -12 19 -18 24 -13 4 4 2 -2 -6 -12
-9 -11 -10 -17 -3 -13 13 8 53 -12 53 -26 0 -4 -4 -5 -10 -2 -16 10 -11 -1 7
-16 11 -10 14 -10 9 -1 -12 20 3 14 29 -12 18 -18 21 -26 12 -35 -9 -9 -8 -11
7 -5 11 4 21 2 27 -7 4 -8 14 -14 21 -14 7 0 12 -9 10 -19 -2 -11 1 -15 7 -11
6 3 19 1 28 -5 16 -10 16 -11 -2 -6 -19 6 -19 5 -3 -7 10 -8 14 -17 10 -21 -4
-4 -2 -7 3 -6 21 5 36 0 30 -10 -3 -5 -1 -10 5 -10 6 0 8 -5 4 -12 -5 -8 0 -7
11 2 17 14 18 13 13 -6 -4 -15 -1 -21 10 -20 9 0 22 -10 29 -24 7 -14 13 -18
13 -10 0 13 2 13 9 0 6 -8 7 -18 4 -24 -4 -5 1 -7 10 -3 9 3 19 1 23 -5 5 -7
2 -8 -6 -3 -9 5 -11 4 -6 -3 4 -7 13 -12 19 -12 7 0 21 -11 31 -25 10 -13 22
-22 27 -19 5 3 6 -3 2 -12 -4 -11 -2 -15 4 -11 6 4 16 0 23 -8 7 -8 11 -15 9
-16 -31 -6 -38 -6 -33 2 3 6 -5 8 -20 5 -14 -3 -26 0 -26 5 0 5 -3 8 -7 7 -15
-4 -53 14 -53 24 0 6 -3 8 -7 5 -3 -4 -15 1 -25 10 -18 16 -18 16 -12 -3 7
-17 6 -17 -9 -6 -8 8 -15 19 -13 25 1 7 1 9 -1 5 -6 -11 -33 -10 -33 1 0 5 -7
12 -16 15 -15 6 -15 4 -3 -11 12 -15 12 -16 -1 -8 -8 6 -18 10 -22 10 -3 0
-18 10 -31 22 -14 12 -28 19 -31 16 -3 -4 -16 2 -28 13 -19 16 -20 16 -9 1 12
-15 12 -17 -3 -11 -9 3 -16 10 -16 14 0 4 -7 11 -16 14 -8 3 -12 2 -9 -4 3 -6
-1 -7 -9 -4 -9 3 -16 10 -16 15 0 5 -5 9 -11 9 -5 0 -7 -6 -3 -12 5 -9 3 -9
-9 1 -9 7 -15 17 -12 20 2 4 -2 8 -10 8 -8 0 -11 -5 -8 -11 3 -6 0 -5 -8 2 -7
6 -21 12 -31 12 -10 0 -18 5 -18 10 0 6 -11 10 -25 10 -14 0 -25 5 -25 11 0 6
-9 9 -20 6 -11 -3 -23 0 -27 5 -4 7 -1 8 8 4 8 -4 5 -1 -5 8 -10 8 -22 13 -26
11 -4 -3 -13 2 -20 10 -10 12 -16 13 -26 4 -11 -9 -14 -8 -14 5 0 9 -5 16 -11
16 -5 0 -7 -4 -4 -10 3 -5 1 -10 -4 -10 -6 0 -11 4 -11 10 0 5 -7 7 -15 3 -9
-3 -15 -2 -14 3 4 21 -2 28 -11 14 -8 -13 -10 -13 -10 2 0 9 -3 18 -7 21 -5 2
-2 2 5 1 10 -3 10 1 1 17 -8 15 -8 19 0 15 6 -4 11 -2 11 4 0 6 4 9 9 6 5 -4
7 4 3 16 -3 13 -1 19 5 15 6 -4 13 6 17 24 3 17 10 28 16 24 6 -3 7 0 4 9 -3
9 -1 16 5 16 6 0 11 7 11 15 0 8 6 15 13 15 8 0 7 4 -3 11 -12 9 -11 10 5 6
16 -3 21 1 23 20 1 16 -2 22 -10 17 -7 -4 -8 -3 -4 5 4 6 12 9 17 6 5 -4 9 -1
9 5 0 6 5 8 13 4 9 -6 9 -5 0 8 -14 16 -8 28 15 28 9 0 12 -6 7 -17z m-1660
-252 c-3 -6 13 -9 39 -8 24 1 42 -1 40 -4 -2 -4 3 -9 11 -12 10 -4 12 -1 9 11
-5 16 -5 16 9 0 10 -13 17 -14 25 -6 8 8 15 6 27 -6 21 -20 26 -20 18 1 -4 11
-3 14 5 9 7 -4 24 -9 38 -12 19 -3 24 -1 18 8 -4 7 5 2 20 -12 19 -17 25 -19
21 -8 -6 14 -2 16 21 12 16 -3 32 -11 36 -17 6 -9 8 -9 8 1 0 6 5 12 11 12 5
0 7 -6 3 -12 -5 -9 -2 -9 9 1 14 11 17 11 17 0 0 -9 3 -10 8 -4 8 12 27 13 38
3 4 -4 13 -3 20 3 8 7 14 6 20 -2 4 -8 3 -9 -4 -5 -8 5 -10 1 -5 -10 5 -15 7
-15 16 1 8 14 11 15 18 4 7 -11 9 -11 9 -1 0 10 5 10 20 2 15 -8 20 -8 21 2 0
11 2 11 6 0 4 -10 8 -10 19 -1 12 9 13 9 9 -3 -4 -9 0 -15 9 -15 8 0 13 3 11
7 -2 4 9 7 25 7 20 0 30 -5 31 -16 0 -11 2 -12 6 -3 4 10 8 10 21 0 9 -7 13
-8 9 -2 -5 8 6 11 32 10 22 0 37 -4 34 -8 -2 -5 1 -8 6 -8 6 0 11 5 11 11 0 5
5 7 10 4 6 -4 8 -10 6 -14 -3 -4 1 -8 9 -8 8 0 12 4 9 9 -3 4 2 8 10 8 9 0 16
-6 16 -12 0 -9 4 -8 10 2 9 13 10 13 10 0 0 -13 1 -13 10 0 8 13 10 12 10 -4
0 -19 0 -19 14 -1 13 18 13 18 24 -1 6 -10 12 -14 12 -7 0 7 7 10 15 7 8 -4
15 -1 15 6 0 10 3 10 15 0 8 -7 15 -9 15 -4 0 5 7 0 15 -10 15 -20 15 -20 15
0 1 16 2 17 13 4 11 -13 21 -16 50 -11 16 2 22 -1 19 -12 -2 -6 7 -3 19 8 12
11 19 14 14 6 -6 -11 -4 -13 7 -8 9 3 26 -2 39 -11 22 -15 23 -15 11 1 -13 15
-10 16 24 11 43 -5 61 -23 39 -40 -7 -5 -17 -23 -21 -38 -5 -20 -9 -24 -15
-14 -7 10 -9 10 -10 -2 -1 -8 -1 -18 0 -22 0 -5 -6 -8 -15 -8 -8 0 -12 -5 -9
-10 8 -13 -14 -42 -25 -35 -5 3 -12 0 -16 -6 -4 -8 -3 -9 4 -5 17 11 15 -19
-3 -34 -8 -6 -18 -9 -23 -6 -5 3 -7 -7 -6 -22 2 -15 1 -21 -2 -14 -8 17 -24 5
-17 -13 3 -8 0 -15 -7 -15 -6 0 -8 -4 -5 -10 6 -9 -8 -15 -29 -11 -5 1 -4 -4
1 -11 12 -13 -5 -48 -22 -48 -5 0 0 10 11 23 19 22 19 22 -1 5 -12 -9 -21 -27
-22 -39 -1 -12 -11 -28 -23 -36 -12 -8 -19 -21 -16 -28 6 -16 -27 -48 -39 -38
-4 5 -5 2 -1 -4 4 -8 1 -13 -9 -13 -9 0 -13 -5 -10 -10 4 -6 12 -7 18 -3 7 4
6 0 -2 -10 -7 -9 -17 -15 -21 -12 -5 3 -11 1 -15 -5 -3 -5 -1 -10 5 -10 6 0
-1 -12 -15 -26 -14 -14 -23 -30 -20 -35 4 -5 2 -9 -4 -9 -5 0 -13 -9 -16 -20
-4 -11 -11 -17 -17 -14 -8 5 -9 1 -4 -11 6 -16 4 -16 -11 -4 -13 11 -15 11 -9
1 5 -8 1 -19 -10 -28 -11 -9 -13 -12 -5 -8 10 5 9 -2 -4 -24 -10 -17 -22 -29
-26 -26 -4 2 -9 -5 -11 -16 -2 -12 -6 -19 -9 -18 -3 2 -13 -3 -22 -10 -12 -10
-17 -10 -23 -1 -4 8 -3 9 4 5 21 -13 13 4 -15 32 -15 15 -20 18 -12 7 13 -18
13 -19 -4 -6 -12 10 -14 17 -7 26 8 10 6 13 -7 11 -12 0 -17 5 -17 17 2 14 -1
15 -13 6 -8 -7 -13 -8 -12 -3 4 21 -2 34 -16 34 -14 0 -19 12 -16 33 0 4 -6 7
-14 7 -8 0 -15 7 -15 16 0 8 -4 13 -9 9 -5 -3 -12 4 -16 15 -3 11 -11 20 -16
20 -6 0 -8 10 -4 23 4 14 3 17 -2 10 -7 -10 -13 -10 -29 2 -19 15 -19 15 1 9
17 -4 16 -3 -3 8 -17 10 -19 17 -11 25 9 9 7 11 -8 7 -12 -3 -25 2 -34 13 -13
17 -13 17 6 3 19 -14 20 -14 2 6 -9 11 -14 25 -10 29 5 5 0 3 -9 -4 -10 -7
-18 -9 -18 -4 0 5 -14 25 -30 43 -17 19 -29 39 -26 46 6 17 -14 33 -32 26 -11
-4 -14 -1 -9 11 3 9 2 19 -4 22 -5 4 -6 11 -3 17 4 7 2 8 -5 4 -9 -6 -9 -12 0
-24 6 -10 -5 1 -25 23 -21 22 -43 51 -49 65 -7 13 -23 30 -37 37 -15 7 -19 13
-10 13 9 1 6 5 -7 10 -13 5 -23 16 -23 25 0 14 -12 20 -34 16 -5 -1 -6 5 -3
13 4 9 2 18 -4 21 -5 4 -7 10 -4 15 5 9 -24 25 -39 21 -5 -1 -3 6 5 15 8 10 9
15 2 11 -6 -4 -18 -4 -27 -1 -14 5 -14 9 -4 23 7 9 9 13 4 9 -12 -10 -48 31
-39 45 4 7 0 7 -10 -2 -15 -12 -17 -12 -11 4 4 10 1 21 -7 27 -11 8 -10 9 3 4
10 -3 20 -1 23 4 4 6 8 10 11 10 3 0 3 -4 -1 -9z m1610 -81 c3 -5 1 -10 -4
-10 -6 0 -11 5 -11 10 0 6 2 10 4 10 3 0 8 -4 11 -10z m-1740 -40 c-3 -5 -1
-10 5 -10 6 0 18 -6 26 -14 11 -11 11 -16 1 -19 -6 -3 -2 -6 11 -6 16 -1 22
-7 22 -23 0 -19 2 -20 10 -8 8 12 10 12 10 1 0 -8 8 -20 18 -28 9 -8 11 -11 3
-7 -9 5 -12 3 -7 -4 4 -7 14 -12 22 -12 8 0 13 -4 9 -9 -3 -5 1 -16 9 -24 8
-8 12 -18 8 -21 -3 -4 2 -4 13 0 18 7 18 6 6 -9 -12 -15 -12 -17 1 -12 8 3 23
-4 34 -17 19 -23 19 -23 -1 -8 -18 14 -19 14 -7 -2 8 -10 22 -20 33 -23 11 -4
19 -15 19 -27 0 -12 3 -19 6 -15 8 8 47 -29 41 -40 -3 -4 2 -15 11 -23 14 -13
15 -12 9 3 -4 11 -3 16 3 12 6 -3 10 -13 10 -21 0 -8 5 -14 10 -14 6 0 10 -6
10 -13 0 -8 10 -19 23 -25 12 -6 16 -11 10 -11 -7 -1 -13 -5 -13 -11 0 -6 3
-9 8 -9 22 4 34 -3 29 -15 -3 -8 4 -22 15 -33 15 -12 19 -13 14 -3 -13 26 64
-63 80 -92 8 -16 21 -28 29 -28 9 0 12 -6 8 -17 -5 -12 -3 -14 7 -8 10 6 12 4
7 -7 -3 -10 0 -15 11 -14 9 0 21 -9 27 -21 7 -13 15 -20 19 -16 4 4 4 0 0 -10
-3 -10 -1 -17 5 -17 7 0 22 -10 34 -21 12 -12 17 -19 10 -15 -6 3 -15 1 -19
-5 -4 -8 -3 -9 4 -5 12 7 52 -27 52 -44 0 -5 -7 -10 -15 -10 -23 0 -30 4 -27
15 2 5 -5 2 -16 -8 -14 -13 -28 -15 -52 -11 -24 5 -31 4 -26 -4 5 -8 2 -10 -9
-6 -13 5 -13 9 -3 23 12 14 11 15 -5 2 -23 -18 -58 -22 -74 -9 -9 7 -13 7 -13
-1 0 -7 -10 -5 -27 6 -21 13 -25 14 -16 3 10 -13 8 -15 -13 -15 -14 1 -30 8
-35 16 -7 11 -9 11 -9 -4 0 -14 -4 -16 -19 -7 -14 7 -21 6 -24 -3 -3 -9 -8 -9
-18 2 -12 12 -12 13 0 6 10 -6 12 -4 6 5 -6 10 -11 9 -22 -5 -9 -14 -13 -15
-13 -4 0 8 -3 10 -8 4 -9 -12 -44 -16 -36 -4 3 5 1 9 -5 9 -5 0 -12 -4 -16
-10 -4 -6 -15 -6 -31 0 -31 12 -37 12 -30 2 2 -4 -13 -6 -35 -4 -21 2 -37 7
-34 11 2 4 -2 8 -9 8 -8 0 -12 -6 -9 -14 4 -9 0 -11 -11 -7 -9 3 -14 9 -11 13
2 4 -2 8 -9 8 -9 0 -12 -7 -8 -16 5 -14 3 -14 -11 -3 -9 8 -21 11 -26 8 -6 -4
-8 4 -5 20 3 19 1 24 -8 18 -11 -6 -10 -5 0 8 10 13 10 17 0 21 -8 3 -5 6 6 6
19 1 19 2 2 14 -17 13 -17 14 -1 30 15 16 15 17 -2 17 -10 0 -14 4 -8 8 16 11
18 52 3 52 -9 0 -9 3 -2 8 16 10 24 51 12 59 -7 4 -8 1 -3 -7 6 -9 4 -11 -4
-6 -9 6 -8 13 5 27 13 15 14 18 3 14 -10 -4 -15 1 -15 14 0 16 3 17 14 9 11
-9 11 -7 1 15 -9 20 -9 30 0 41 8 9 8 16 2 20 -7 5 -7 15 -1 32 6 15 6 23 1
19 -5 -3 -12 -1 -16 5 -3 5 1 10 9 10 8 0 18 4 21 10 3 6 -1 7 -10 4 -11 -5
-14 -2 -8 12 4 12 3 15 -5 10 -8 -5 -10 -2 -6 8 3 9 9 14 13 11 4 -2 8 2 8 9
0 9 -7 12 -16 9 -13 -5 -14 -3 -3 8 14 16 16 43 2 34 -7 -4 -7 3 0 20 6 15 8
31 4 36 -3 5 0 9 6 9 6 0 8 5 4 12 -11 18 -4 81 9 91 7 5 1 6 -13 2 -23 -6
-24 -5 -7 9 10 8 14 17 9 20 -11 7 -3 66 10 66 5 0 6 -4 3 -10z m1544 -92 c5
-13 6 -27 3 -32 -3 -5 0 -6 7 -1 16 9 61 -32 55 -50 -3 -7 0 -16 7 -21 8 -5
10 -3 4 6 -5 8 -4 11 3 6 6 -4 9 -13 6 -20 -3 -8 0 -17 7 -22 8 -5 10 -3 4 6
-5 9 -4 11 3 6 7 -4 12 -14 12 -22 0 -8 4 -12 10 -9 6 4 7 -1 3 -11 -5 -13 -3
-15 7 -9 10 6 12 4 7 -8 -3 -9 -1 -19 5 -23 7 -5 8 -2 3 6 -5 9 -4 11 3 6 7
-4 12 -17 12 -29 0 -18 2 -19 10 -7 8 12 10 11 10 -7 0 -14 6 -23 15 -23 8 0
14 -3 13 -7 -4 -16 14 -53 23 -48 5 4 13 -5 19 -19 5 -14 14 -26 19 -26 5 0
14 -14 21 -31 8 -19 16 -26 20 -19 7 11 24 -24 21 -42 -1 -5 4 -8 10 -8 5 0 7
-4 4 -10 -3 -5 0 -10 8 -10 8 0 20 -6 26 -14 10 -11 8 -17 -6 -26 -16 -9 -15
-10 6 -4 19 5 23 3 18 -10 -3 -8 -1 -18 5 -22 7 -4 8 -3 4 4 -4 7 -2 12 5 12
6 0 9 -8 6 -20 -3 -10 -2 -19 2 -18 24 3 33 -4 28 -23 -4 -16 -3 -18 8 -9 11
9 13 6 11 -15 -3 -19 4 -30 25 -42 27 -16 34 -26 30 -47 -1 -5 5 -6 13 -3 10
4 13 1 9 -9 -3 -9 0 -14 8 -12 9 2 14 -5 13 -19 0 -12 4 -21 9 -20 5 1 14 -7
20 -18 7 -11 20 -26 30 -33 9 -7 17 -20 17 -28 0 -8 6 -17 13 -20 7 -2 13 -14
14 -24 1 -13 -2 -18 -9 -14 -7 5 -8 2 -3 -6 6 -10 11 -9 22 5 13 19 19 9 5
-11 -7 -12 -47 -13 -58 -2 -3 4 -12 4 -20 1 -8 -3 -21 0 -29 7 -12 10 -15 10
-15 -1 -1 -9 -5 -8 -15 5 -8 11 -15 14 -15 8 0 -7 -7 -12 -15 -12 -8 0 -15 5
-15 11 0 8 -5 7 -15 -1 -13 -10 -19 -9 -37 6 -12 11 -19 14 -15 9 3 -6 -3 -11
-13 -11 -15 0 -17 3 -7 15 10 12 9 13 -9 3 -21 -11 -48 -11 -60 1 -4 4 -13 2
-20 -4 -8 -7 -14 -6 -20 2 -5 8 -3 9 7 4 12 -8 12 -6 0 8 -14 18 -26 24 -17 8
3 -5 -6 -11 -20 -14 -16 -3 -28 1 -31 9 -3 8 -9 14 -15 14 -5 0 -7 -4 -4 -8 2
-4 -6 -8 -19 -8 -13 0 -21 4 -19 8 3 5 10 5 16 2 7 -4 8 -2 4 5 -4 6 -12 8
-18 5 -20 -12 -76 -11 -72 1 3 6 -2 12 -10 12 -8 0 -13 -4 -10 -9 3 -4 0 -8
-5 -8 -6 0 -11 4 -11 10 0 5 -17 8 -37 7 -45 -4 -76 9 -67 26 4 7 -2 3 -14 -7
-17 -15 -22 -16 -23 -5 0 11 -2 11 -6 1 -4 -10 -9 -9 -20 5 -14 17 -14 17 -8
-1 6 -20 6 -20 -16 0 -12 10 -19 13 -15 7 5 -10 1 -11 -19 -3 -15 6 -31 8 -36
4 -5 -3 -9 0 -9 6 0 7 -6 8 -17 2 -26 -12 -40 -9 -58 13 -12 16 -14 17 -9 2 5
-13 2 -16 -10 -11 -9 3 -16 11 -16 18 0 6 -5 4 -10 -4 -9 -13 -11 -13 -20 0
-6 10 -10 11 -10 3 0 -7 -5 -13 -11 -13 -5 0 -7 6 -3 13 5 7 0 6 -11 -3 -10
-8 -16 -10 -12 -4 4 7 -11 11 -45 13 -57 2 -71 7 -63 24 3 7 0 5 -6 -4 -17
-23 -68 -6 -66 21 1 21 17 16 17 -6 0 -8 4 -14 10 -14 6 0 5 11 -3 27 -9 21
-9 27 1 31 7 2 10 8 7 12 -3 5 0 12 6 16 8 5 10 2 5 -7 -4 -8 1 -3 12 11 11
13 18 28 16 32 -3 4 4 16 16 28 11 11 18 20 15 20 -3 0 3 10 15 22 11 12 20
28 20 36 0 8 6 12 14 9 10 -4 14 0 11 14 -2 11 4 23 16 30 12 6 18 17 15 25
-3 9 -1 12 4 9 6 -3 10 1 10 9 0 9 5 16 11 16 5 0 7 -5 3 -12 -4 -7 -3 -8 4
-4 9 5 9 13 2 26 -11 21 2 36 22 24 6 -4 8 -3 5 3 -9 14 22 55 36 46 7 -4 6 0
-2 10 -12 15 -10 18 14 27 24 9 26 12 14 27 -8 9 -9 14 -4 11 6 -3 16 0 23 8
7 8 10 14 6 14 -4 0 3 9 16 20 13 11 18 20 11 20 -7 0 -9 5 -6 10 4 6 11 7 17
4 7 -5 9 -1 5 9 -4 11 -2 14 8 11 8 -3 12 1 12 13 -1 10 4 17 11 15 8 -1 11 2
7 8 -3 6 1 17 9 26 9 9 14 20 10 25 -3 5 0 8 8 7 7 -2 12 3 10 11 -2 9 3 11
13 7 10 -4 14 -2 9 5 -4 6 0 15 7 20 12 7 12 9 0 9 -17 0 29 39 47 40 7 0 16
-10 21 -22z m198 -20 c-2 -13 -2 -17 0 -10 7 19 47 14 61 -9 11 -16 16 -18 28
-9 11 10 14 10 14 1 0 -7 5 -9 10 -6 6 3 10 -2 11 -12 0 -10 3 -13 6 -5 2 6 9
12 14 12 6 0 7 -6 3 -12 -5 -8 0 -7 11 2 11 9 16 10 11 3 -4 -8 -2 -13 4 -13
6 0 8 -5 4 -12 -5 -9 -2 -9 9 1 15 12 21 9 19 -10 -1 -3 11 -4 25 -1 20 4 24
2 18 -9 -7 -11 -5 -11 10 1 10 8 16 10 13 5 -4 -6 -3 -17 3 -25 7 -12 9 -11 9
5 1 20 1 20 15 1 11 -14 15 -16 15 -5 0 11 2 11 9 1 4 -7 17 -15 27 -16 12 -2
18 -10 17 -22 -1 -11 0 -13 3 -6 6 14 34 17 34 3 0 -5 7 -12 16 -15 14 -5 15
-4 5 8 -11 13 -9 13 13 3 14 -7 26 -16 26 -20 0 -5 5 -5 10 -2 6 3 10 -1 10
-10 0 -9 5 -13 10 -10 6 4 8 12 4 18 -3 7 2 3 10 -7 9 -11 16 -16 16 -12 0 5
12 1 26 -9 14 -9 32 -14 40 -11 8 3 17 -1 21 -9 4 -12 9 -13 19 -4 14 11 15
10 18 -11 2 -18 53 -39 65 -27 8 8 11 8 11 -1 0 -7 3 -11 8 -11 21 4 32 -2 26
-13 -6 -10 -5 -10 8 0 12 10 18 9 28 -3 11 -13 15 -13 21 -3 7 10 9 8 9 -5 0
-11 6 -17 18 -15 10 2 16 -2 14 -10 -2 -10 2 -10 19 -1 17 9 20 8 14 -2 -6 -8
-4 -11 7 -6 13 4 14 0 8 -29 -4 -19 -5 -34 -1 -34 3 0 -2 -7 -13 -15 -10 -8
-15 -19 -10 -26 4 -8 3 -10 -4 -5 -7 4 -12 1 -12 -9 0 -10 -5 -13 -12 -9 -7 4
-10 4 -6 -1 4 -4 2 -15 -5 -23 -10 -13 -9 -15 3 -8 8 4 7 1 -4 -8 -10 -8 -15
-19 -11 -25 3 -6 1 -11 -4 -11 -6 0 -11 5 -11 12 0 6 -3 8 -6 5 -4 -4 -1 -13
5 -21 10 -11 8 -17 -6 -25 -10 -6 -13 -11 -8 -11 6 0 -1 -8 -15 -16 -14 -8
-17 -13 -7 -10 9 3 17 1 17 -4 0 -10 -15 -14 -35 -10 -5 1 -4 -4 3 -11 18 -19
15 -28 -10 -22 -14 3 -18 1 -12 -4 15 -11 9 -45 -11 -59 -12 -9 -13 -13 -3
-17 9 -4 7 -6 -4 -6 -12 -1 -15 -6 -11 -18 6 -15 4 -16 -8 -6 -12 10 -15 8
-15 -7 0 -10 5 -16 11 -14 5 3 -3 -4 -18 -16 -23 -19 -26 -25 -15 -38 11 -13
10 -15 -4 -9 -10 3 -20 1 -24 -5 -4 -6 -3 -8 4 -4 6 3 13 3 16 -2 2 -4 -4 -9
-15 -9 -10 -1 -19 3 -19 8 0 6 -6 7 -12 3 -8 -5 -7 0 2 11 9 11 10 16 3 11 -8
-4 -13 -2 -13 4 0 6 -4 9 -8 6 -4 -2 -14 5 -22 17 -12 21 -12 21 5 7 14 -11
12 -6 -5 18 -27 36 -32 40 -23 15 8 -23 -1 -14 -17 16 -10 19 -9 22 1 16 8 -5
10 -4 5 3 -4 7 -14 12 -22 12 -8 0 -13 4 -10 9 3 5 -1 12 -10 15 -8 3 -12 10
-9 16 3 5 -1 10 -10 10 -11 0 -15 5 -11 15 3 9 0 15 -9 15 -8 0 -17 11 -21 24
-3 14 -17 33 -30 43 -13 10 -24 27 -24 38 0 17 -2 17 -10 5 -8 -12 -10 -11
-10 8 0 12 -6 22 -12 22 -9 0 -8 4 2 10 12 8 11 10 -6 10 -24 0 -35 19 -29 50
2 11 0 18 -5 15 -11 -7 -50 16 -50 28 0 4 5 5 12 1 7 -4 8 -3 4 5 -4 6 -11 9
-16 6 -4 -3 -14 3 -21 12 -8 10 -9 14 -2 10 6 -4 15 -2 19 4 4 8 3 9 -4 5 -7
-4 -12 -3 -12 3 0 6 -8 8 -17 4 -15 -5 -16 -3 -5 8 6 7 12 18 12 24 0 5 -5 3
-10 -5 -9 -13 -11 -13 -19 0 -5 8 -7 18 -5 22 3 4 0 8 -6 8 -6 0 -8 5 -4 12 4
6 3 8 -3 5 -13 -8 -47 28 -39 42 4 5 1 13 -5 17 -8 5 -9 3 -4 -6 6 -9 4 -11
-4 -6 -7 5 -10 14 -7 22 5 13 -6 19 -29 14 -5 -1 -7 2 -3 6 5 4 -1 14 -12 21
-12 8 -17 19 -13 26 13 21 11 36 -4 30 -12 -5 -12 -7 -1 -15 10 -8 10 -9 -2
-5 -8 2 -14 11 -12 20 1 8 -3 19 -9 23 -8 5 -9 3 -4 -6 5 -9 4 -11 -4 -6 -9 6
-9 11 -1 21 8 10 8 15 -1 21 -8 4 -9 3 -5 -4 11 -18 -2 -14 -23 6 -30 29 -35
62 -9 62 5 0 7 -10 5 -22z m-1412 -68 c3 -5 1 -10 -4 -10 -6 0 -11 5 -11 10 0
6 2 10 4 10 3 0 8 -4 11 -10z m2304 -53 c-2 -3 -15 10 -28 27 l-24 31 28 -27
c16 -15 27 -29 24 -31z m-2174 -87 c3 -5 1 -10 -4 -10 -6 0 -11 5 -11 10 0 6
2 10 4 10 3 0 8 -4 11 -10z m1985 -50 c0 -5 -2 -10 -4 -10 -3 0 -8 5 -11 10
-3 6 -1 10 4 10 6 0 11 -4 11 -10z m-5390 -90 c0 -5 -5 -10 -11 -10 -5 0 -7 5
-4 10 3 6 8 10 11 10 2 0 4 -4 4 -10z m3370 -20 c0 -5 -2 -10 -4 -10 -3 0 -8
5 -11 10 -3 6 -1 10 4 10 6 0 11 -4 11 -10z m1630 -66 c0 -2 -7 -4 -15 -4 -8
0 -15 4 -15 10 0 5 7 7 15 4 8 -4 15 -8 15 -10z m710 -41 c0 -10 5 -25 11 -33
9 -13 10 -12 5 3 -4 11 -2 16 5 11 6 -3 9 -17 6 -30 -2 -13 -1 -22 2 -20 3 2
12 -2 19 -10 8 -9 9 -14 2 -14 -6 0 -8 -5 -5 -10 4 -6 11 -7 17 -4 7 4 8 2 4
-4 -4 -7 -2 -12 3 -12 6 0 11 -9 11 -20 0 -11 6 -20 13 -20 8 0 7 -4 -3 -10
-13 -8 -13 -10 1 -10 11 0 15 -8 14 -25 -2 -14 1 -23 5 -20 11 7 41 -35 34
-47 -3 -4 0 -8 5 -8 6 0 11 -9 11 -21 0 -11 5 -17 10 -14 6 3 10 -1 10 -9 0
-9 0 -18 0 -21 0 -3 9 -14 20 -25 21 -21 28 -56 8 -44 -7 4 -8 3 -4 -4 4 -6
13 -9 21 -6 10 4 12 0 8 -15 -4 -15 -1 -21 11 -21 9 0 15 -3 14 -7 -1 -5 3
-18 10 -31 7 -12 11 -26 8 -31 -3 -5 3 -11 14 -14 14 -4 18 -10 13 -23 -5 -13
-3 -15 8 -9 12 7 12 6 1 -7 -10 -13 -9 -18 5 -29 17 -13 17 -13 3 6 -14 19
-14 19 2 6 10 -7 16 -17 13 -21 -3 -5 -1 -11 4 -15 6 -3 7 -13 4 -22 -4 -10
-2 -14 4 -10 19 12 26 -26 7 -40 -19 -14 -57 4 -46 22 3 5 -2 4 -11 -4 -16
-13 -22 -8 -18 13 1 5 -4 4 -13 -3 -11 -9 -16 -9 -22 0 -5 8 -3 9 6 4 9 -5 11
-4 6 4 -6 9 -11 9 -22 0 -8 -7 -14 -7 -14 -1 0 5 -12 10 -26 10 -15 0 -30 5
-34 12 -4 7 -12 10 -18 6 -6 -3 -13 -2 -17 4 -4 6 -10 8 -15 5 -5 -3 -15 4
-23 16 -11 14 -16 17 -19 7 -4 -10 -8 -10 -23 2 -10 8 -19 13 -21 10 -1 -3 -6
-1 -11 4 -4 5 -3 6 4 2 6 -3 14 -2 17 3 7 10 -13 9 -31 -2 -6 -4 -14 -3 -18 3
-4 6 -11 8 -16 5 -5 -4 -12 0 -15 8 -3 8 -16 13 -30 11 -20 -2 -23 0 -14 11 9
11 6 13 -17 11 -36 -4 -55 3 -46 18 4 6 0 6 -9 -2 -13 -10 -18 -10 -24 -1 -5
8 -3 9 6 4 9 -5 11 -4 6 4 -6 9 -11 9 -22 0 -12 -10 -14 -10 -12 1 2 7 -3 15
-11 18 -8 3 -11 0 -7 -7 4 -6 3 -11 -3 -11 -5 0 -13 9 -16 20 -3 11 -14 20
-23 20 -13 0 -13 3 4 16 10 8 13 12 5 8 -10 -5 -8 3 5 27 10 19 22 35 26 37 4
2 4 11 1 19 -5 12 -2 15 9 10 11 -4 15 0 13 11 -3 22 13 54 25 47 4 -3 6 4 3
14 -3 14 3 24 24 36 15 9 21 14 12 11 -13 -3 -15 0 -12 15 3 10 10 16 15 13 5
-3 8 1 6 9 -2 9 6 23 17 32 11 9 13 13 5 9 -13 -7 -13 -5 -2 9 8 9 11 20 8 25
-2 4 11 26 30 47 25 28 31 41 22 47 -10 5 -8 8 4 8 9 0 20 5 24 12 4 7 3 8 -4
4 -7 -4 -12 -2 -12 3 0 6 7 11 16 11 8 0 12 5 9 10 -3 6 -1 10 4 10 6 0 11 -8
11 -17z m-720 -153 c0 -5 -7 -7 -15 -4 -8 4 -15 8 -15 10 0 2 7 4 15 4 8 0 15
-4 15 -10z m-1964 -215 c-5 15 -4 16 9 5 12 -10 15 -10 16 1 0 10 2 10 5 2 3
-7 12 -9 21 -6 8 3 19 0 24 -8 7 -12 9 -12 9 1 0 13 1 13 10 0 6 -10 10 -11
10 -2 0 6 7 12 16 12 9 0 12 -5 8 -12 -5 -10 -4 -10 6 -1 7 6 19 9 28 6 11 -5
13 -2 8 8 -4 8 0 5 8 -5 12 -15 16 -16 17 -5 0 11 2 11 6 0 5 -11 7 -11 14 0
7 12 9 11 9 -1 0 -13 1 -13 10 0 9 13 10 13 10 0 0 -13 1 -13 10 0 9 13 10 13
10 0 0 -13 1 -13 10 0 8 12 10 12 10 -5 0 -17 2 -17 10 -5 5 8 10 11 10 5 0
-5 5 -3 10 5 6 10 10 11 10 3 0 -7 5 -13 11 -13 5 0 8 4 5 8 -3 5 1 9 9 9 8 0
12 -4 10 -8 -3 -4 2 -9 10 -12 8 -4 12 -1 9 6 -2 7 6 13 21 13 22 2 24 0 10
-10 -13 -9 -12 -11 9 -11 13 0 22 5 20 10 -2 6 11 10 30 10 29 0 32 -2 23 -15
-8 -10 -3 -9 17 4 16 10 25 13 22 7 -10 -15 7 -14 23 2 11 10 13 9 7 -1 -5 -9
1 -12 22 -10 17 1 38 -4 49 -12 17 -14 17 -14 -1 7 l-18 22 25 -12 c14 -6 25
-19 24 -29 -1 -9 -5 -14 -11 -11 -5 4 -7 -1 -3 -11 4 -10 3 -15 -3 -11 -6 3
-10 1 -10 -5 0 -6 -5 -8 -12 -4 -10 6 -9 3 0 -9 12 -13 10 -18 -7 -29 -22 -14
-30 -34 -8 -23 6 4 1 -3 -12 -14 -13 -12 -20 -21 -17 -21 4 0 -1 -11 -10 -25
-9 -14 -20 -23 -24 -20 -5 3 -6 -5 -2 -17 4 -16 2 -19 -8 -13 -10 6 -12 4 -7
-8 4 -11 1 -17 -9 -17 -9 0 -12 -5 -8 -12 4 -6 -1 -17 -11 -25 -11 -7 -15 -13
-10 -13 5 0 0 -7 -11 -16 -10 -8 -13 -13 -7 -9 9 4 11 1 7 -9 -3 -9 -10 -13
-15 -10 -5 3 -6 -2 -3 -10 7 -19 -7 -21 -26 -3 -12 10 -12 9 -4 -3 6 -8 9 -21
8 -27 -1 -7 -2 -17 -3 -23 0 -5 -9 -6 -18 -3 -16 6 -17 5 -3 -12 14 -17 13
-18 -4 -12 -17 7 -17 6 -5 -10 12 -14 12 -16 0 -8 -11 6 -13 4 -8 -8 4 -12 1
-15 -14 -12 -16 3 -18 1 -10 -8 7 -9 5 -16 -9 -25 -11 -7 -17 -18 -14 -27 4
-10 0 -15 -12 -15 -16 0 -17 -2 -4 -10 14 -9 7 -15 -14 -11 -5 1 -3 -6 5 -15
8 -10 9 -15 3 -11 -12 7 -36 -14 -33 -29 3 -21 -2 -35 -11 -29 -9 5 -15 -16
-11 -38 1 -5 -3 -6 -8 -3 -5 3 -12 -1 -15 -10 -4 -10 -2 -13 7 -9 6 4 4 0 -5
-8 -10 -8 -14 -18 -10 -22 4 -5 -1 -5 -10 -2 -12 4 -15 2 -11 -9 3 -7 0 -14
-7 -14 -7 0 -10 -7 -6 -15 5 -14 -5 -20 -27 -16 -5 1 -6 -3 -2 -9 3 -6 11 -7
17 -4 7 5 8 2 4 -5 -5 -7 -15 -10 -23 -6 -13 4 -14 3 -3 -10 10 -12 10 -15 0
-15 -7 0 -10 -7 -6 -16 5 -14 4 -15 -9 -4 -13 11 -14 10 -9 -4 4 -10 1 -16 -7
-16 -7 0 -9 -3 -6 -7 4 -3 -1 -12 -11 -20 -9 -8 -11 -12 -4 -8 7 4 12 0 12
-10 0 -9 -4 -13 -10 -10 -5 3 -12 -6 -16 -20 -3 -14 -10 -25 -16 -25 -5 0 -6
5 -2 12 4 6 3 8 -3 5 -6 -4 -8 -19 -6 -34 4 -22 2 -25 -6 -13 -9 12 -11 11
-11 -7 0 -12 -5 -25 -12 -29 -7 -5 -8 -3 -3 6 5 8 4 11 -2 7 -6 -4 -9 -18 -8
-32 2 -16 -4 -30 -17 -39 -11 -8 -17 -19 -14 -25 4 -5 -1 -14 -9 -19 -9 -5
-17 -16 -19 -25 -3 -26 -14 -31 -33 -16 -15 12 -14 11 2 -14 15 -23 15 -26 2
-21 -12 4 -15 1 -12 -15 2 -11 -1 -24 -7 -27 -7 -4 -8 -2 -4 5 4 6 0 14 -9 17
-12 5 -13 9 -3 21 7 9 8 17 2 21 -12 9 -12 85 1 94 6 5 5 8 -2 8 -7 0 -13 5
-13 11 0 5 5 7 12 3 7 -5 8 -3 2 7 -12 19 -12 51 -1 67 6 8 5 12 -3 12 -9 0
-9 4 1 17 10 11 10 14 2 9 -16 -9 -17 6 -1 22 9 9 9 12 -1 12 -10 0 -11 3 -2
14 9 10 9 16 1 21 -8 5 -8 11 1 21 9 11 9 18 1 26 -8 8 -9 15 -1 25 9 10 8 13
-1 13 -10 0 -10 3 -1 14 9 10 9 16 1 21 -8 5 -8 11 1 21 9 11 9 18 1 26 -8 8
-9 15 -1 25 8 9 8 13 0 13 -6 0 -11 5 -11 11 0 5 4 8 8 5 4 -2 8 8 7 24 0 15
-3 26 -7 23 -11 -6 -10 5 3 29 6 12 7 18 1 14 -5 -3 -12 1 -16 9 -3 8 0 17 6
21 7 5 8 2 3 -6 -5 -9 -4 -11 4 -6 9 6 9 11 0 22 -8 10 -8 18 -1 27 9 10 7 19
-4 35 -9 13 -12 22 -7 21 21 -4 25 2 8 14 -14 11 -15 16 -5 22 9 6 11 4 5 -5
-5 -9 -4 -11 3 -6 9 5 7 15 -5 34 -14 21 -14 24 -2 15 12 -10 15 -8 15 7 0 10
-3 17 -7 14 -4 -2 -10 3 -13 12 -3 8 -2 12 3 9 5 -3 12 -1 16 5 3 5 1 10 -6
10 -10 0 -10 3 -2 11 9 9 9 16 0 29 -8 14 -7 23 4 36 8 10 9 15 3 11 -7 -4
-15 0 -18 9 -3 8 -2 12 3 9 5 -3 12 -1 16 5 3 5 1 10 -6 10 -8 0 -8 4 1 16 8
8 9 14 4 13 -19 -3 -28 2 -16 9 9 7 10 15 3 35 -8 19 -7 27 0 27 7 0 6 6 -2
17 -10 12 -11 15 -1 9 10 -6 11 -1 7 18 -3 14 -7 37 -10 51 -3 14 -1 25 5 25
6 0 8 5 4 12 -5 8 -2 9 11 4 14 -5 16 -4 7 7 -9 10 -8 14 3 14 8 0 15 -4 15
-9 0 -5 5 -6 10 -3 6 4 7 12 3 18 -4 7 6 4 21 -7 27 -17 29 -17 22 -1z m999
-36 c6 -3 17 -5 25 -4 8 0 21 -5 28 -12 8 -8 21 -9 35 -4 27 9 57 3 57 -11 0
-6 6 -6 15 2 11 9 15 9 15 1 0 -9 5 -9 21 -1 15 8 24 8 34 0 8 -7 20 -8 26 -4
8 5 9 3 4 -6 -6 -9 -2 -10 15 -5 15 5 20 4 16 -4 -4 -6 -2 -11 3 -11 6 0 11 6
11 13 0 8 4 7 10 -3 9 -13 10 -13 11 0 0 10 3 8 9 -5 5 -11 9 -14 9 -6 1 11 4
11 18 0 9 -8 14 -9 11 -4 -4 6 6 10 22 10 15 0 26 -3 24 -6 -5 -9 22 -19 30
-11 10 9 37 11 31 2 -3 -5 9 -7 27 -6 19 2 41 -3 51 -12 16 -14 19 -14 27 -2
7 10 10 11 10 3 0 -7 5 -13 11 -13 5 0 7 5 4 10 -3 6 -2 10 3 10 16 0 22 -13
11 -27 -9 -10 -5 -10 17 2 20 10 32 11 41 4 6 -6 17 -8 23 -4 5 3 10 1 10 -5
0 -7 6 -8 18 -1 13 7 27 6 46 -4 14 -8 24 -10 21 -6 -3 5 4 7 15 4 11 -3 18
-9 15 -13 -3 -5 -1 -12 5 -15 6 -4 10 -3 9 2 -3 20 2 27 11 13 9 -13 10 -13
10 0 0 13 1 13 11 0 8 -11 12 -12 16 -2 3 8 10 5 22 -10 14 -16 20 -18 26 -8
5 8 4 11 -3 6 -6 -3 -13 -3 -16 2 -2 4 6 8 19 8 13 0 21 -4 18 -10 -4 -5 1 -7
10 -3 9 3 19 2 23 -4 4 -7 10 -6 19 1 10 8 14 7 17 -2 4 -11 8 -11 20 0 13 10
18 9 28 -3 10 -12 16 -13 28 -3 11 9 14 9 9 1 -4 -6 -3 -14 3 -18 5 -3 10 -1
10 4 0 12 27 10 47 -2 6 -4 19 -4 30 -1 16 6 16 5 -2 -10 -11 -9 -15 -16 -10
-15 24 3 26 -3 11 -26 -9 -14 -13 -25 -9 -25 4 0 -2 -7 -13 -15 -14 -11 -15
-14 -4 -15 13 0 13 -2 0 -9 -8 -6 -18 -7 -24 -4 -5 3 -6 1 -2 -6 4 -6 2 -18
-4 -26 -7 -8 -9 -15 -5 -15 4 0 3 -6 -4 -13 -6 -8 -9 -24 -6 -36 4 -20 2 -21
-12 -9 -10 8 -14 8 -10 1 4 -6 3 -14 -3 -18 -5 -3 -10 -12 -10 -18 0 -7 4 -6
10 3 5 8 11 12 15 9 3 -3 -7 -19 -22 -35 -26 -27 -41 -60 -23 -49 5 3 2 -8 -6
-25 -9 -17 -20 -27 -26 -24 -5 4 -4 -4 3 -17 11 -22 11 -23 -5 -10 -14 12 -16
12 -10 -3 3 -9 2 -16 -4 -16 -5 0 -13 -7 -16 -16 -6 -15 -4 -15 11 -3 17 13
17 13 0 -7 -9 -11 -14 -24 -10 -27 3 -4 -2 -7 -13 -8 -11 0 -14 -3 -6 -6 10
-4 10 -8 1 -19 -6 -8 -15 -12 -19 -9 -3 2 -6 -9 -5 -26 1 -16 -2 -32 -7 -35
-4 -3 -5 -10 -2 -16 5 -8 1 -9 -12 -4 -10 4 -15 4 -11 0 4 -4 1 -14 -6 -22
-10 -13 -9 -15 3 -8 8 4 4 -2 -10 -15 l-25 -22 24 8 24 7 -21 -22 c-12 -13
-19 -28 -15 -33 4 -6 1 -7 -7 -2 -10 6 -12 4 -7 -8 7 -18 -24 -42 -38 -29 -5
4 -5 1 -1 -6 5 -7 15 -11 25 -8 9 4 5 -3 -9 -15 -14 -11 -19 -18 -12 -14 6 3
12 2 12 -3 0 -6 -7 -12 -15 -16 -9 -3 -12 -12 -8 -22 5 -13 2 -16 -9 -12 -8 4
-15 1 -15 -8 0 -7 5 -11 11 -7 6 3 -2 -6 -18 -21 -16 -14 -25 -26 -20 -26 6 0
16 6 24 13 8 6 6 2 -4 -10 -11 -13 -16 -23 -13 -23 4 0 -1 -8 -10 -18 -10 -11
-22 -17 -27 -14 -5 3 -6 0 -2 -7 4 -6 11 -9 16 -6 11 7 7 -22 -5 -32 -4 -4 -5
-2 0 6 6 10 4 12 -4 7 -7 -5 -10 -14 -7 -22 3 -8 -1 -14 -11 -14 -13 0 -14 -2
-2 -17 10 -11 10 -14 1 -9 -8 5 -16 -2 -22 -19 -13 -34 -13 -37 3 -30 6 4 3
-1 -8 -10 -11 -9 -19 -22 -17 -29 1 -7 -5 -19 -13 -26 -8 -7 -15 -9 -15 -4 0
5 -5 2 -11 -6 -9 -13 -10 -12 -5 3 3 9 1 17 -4 17 -5 0 -7 6 -4 13 3 8 -3 20
-13 28 -17 13 -17 13 -3 -6 14 -18 14 -19 -1 -7 -9 6 -15 23 -14 36 2 19 -1
23 -13 19 -9 -4 -13 -2 -8 5 3 6 1 14 -5 17 -5 4 -8 14 -5 22 3 8 2 12 -3 9
-5 -3 -12 1 -15 10 -4 10 -2 13 7 8 6 -4 -3 6 -20 23 -33 31 -47 57 -18 33 13
-11 14 -10 9 4 -3 9 -12 16 -20 16 -8 0 -14 7 -14 16 0 9 -9 23 -20 32 -12 10
-22 31 -23 49 -1 24 -5 29 -15 21 -9 -8 -11 -7 -6 7 6 14 4 16 -7 10 -11 -7
-11 -5 1 10 9 11 10 16 3 11 -8 -4 -13 -1 -13 8 0 9 -4 16 -9 16 -5 0 -16 12
-26 26 -9 15 -12 24 -7 20 6 -3 13 -2 17 4 3 6 -3 10 -16 10 -19 0 -20 2 -8
17 8 9 9 14 2 10 -15 -9 -52 43 -55 76 -1 16 -7 23 -15 20 -9 -4 -11 0 -6 13
5 13 3 15 -7 9 -10 -6 -12 -3 -7 14 3 15 -1 26 -16 36 -12 8 -17 15 -12 15 6
0 6 3 0 8 -16 12 -41 47 -28 38 9 -5 11 -2 7 8 -3 9 -10 14 -14 13 -4 -1 -7 1
-6 4 0 4 -8 17 -18 28 -19 21 -24 33 -28 72 -1 9 -8 15 -15 12 -9 -3 -11 0 -7
10 3 8 0 18 -7 23 -8 4 -10 3 -5 -4 4 -7 5 -12 2 -12 -3 0 -10 10 -17 21 -9
17 -8 20 3 14 7 -5 10 -5 6 0 -4 4 -2 15 5 24 10 14 10 14 -5 3 -20 -16 -40
-8 -31 13 3 8 0 15 -6 15 -6 0 -11 5 -11 11 0 5 5 7 12 3 7 -4 8 -3 4 5 -4 6
-11 9 -16 6 -8 -5 -24 11 -25 25 -3 23 -18 49 -26 45 -5 -3 -6 2 -2 11 5 13 3
15 -8 9 -11 -7 -11 -5 1 10 8 10 10 16 4 12 -15 -9 -32 13 -28 36 1 11 0 16
-3 13 -10 -9 -41 38 -35 53 4 10 1 12 -9 6 -12 -8 -12 -6 0 8 12 15 12 17 -1
12 -9 -4 -18 1 -22 10 -4 11 -2 14 7 10 6 -4 5 -1 -3 7 -20 17 -55 73 -41 64
6 -4 11 -3 11 2 0 10 57 10 75 1z m-189 -71 c4 -6 3 -8 -3 -5 -5 3 -10 0 -10
-7 0 -8 6 -12 14 -9 9 4 13 -4 13 -23 0 -23 2 -26 10 -14 8 12 10 11 10 -7 0
-13 4 -23 9 -23 5 0 12 -7 15 -16 5 -12 3 -14 -7 -8 -7 5 -5 2 5 -8 10 -9 18
-21 18 -27 0 -6 4 -11 9 -11 5 0 12 -7 15 -16 6 -15 4 -15 -11 -3 -15 12 -15
11 1 -13 18 -28 33 -39 21 -15 -4 6 1 3 9 -7 9 -11 16 -26 16 -33 0 -8 9 -24
20 -36 11 -12 18 -27 16 -34 -3 -7 1 -13 8 -13 8 0 16 -7 20 -15 3 -8 2 -14
-2 -12 -8 2 -12 -7 -12 -25 0 -10 3 -9 9 1 5 7 14 10 20 6 9 -5 9 -11 -1 -23
-10 -12 -10 -14 0 -8 7 4 12 1 12 -8 0 -9 5 -16 11 -16 5 0 7 -4 4 -10 -3 -5
-1 -10 5 -10 6 0 9 -4 6 -9 -3 -5 4 -11 16 -14 18 -5 19 -8 8 -21 -10 -14 -10
-16 6 -16 14 0 16 -2 6 -9 -10 -6 -9 -10 7 -14 15 -4 19 -10 14 -23 -4 -12 -3
-15 5 -10 8 5 10 1 5 -10 -5 -13 -3 -15 7 -9 9 5 11 4 6 -4 -4 -6 0 -14 9 -17
11 -5 13 -10 5 -19 -7 -9 -5 -16 7 -26 16 -13 17 -12 4 4 -7 9 -9 17 -3 17 16
0 22 -26 9 -39 -9 -9 -7 -13 9 -17 11 -3 26 -14 33 -26 7 -11 8 -17 2 -13 -6
3 -11 2 -11 -3 0 -5 10 -14 23 -20 12 -6 16 -11 9 -11 -10 -1 -10 -4 0 -15 7
-8 18 -11 23 -8 6 3 3 -3 -5 -13 -9 -11 -10 -16 -2 -11 7 4 12 1 12 -9 0 -10
-5 -13 -12 -9 -7 4 -8 3 -4 -5 6 -9 11 -9 24 1 10 8 13 9 9 1 -4 -6 -3 -14 3
-18 6 -4 8 -11 5 -16 -4 -5 -1 -9 5 -9 6 0 8 -4 5 -10 -3 -5 2 -10 12 -11 12
0 13 -2 5 -6 -10 -4 -8 -9 8 -20 17 -12 19 -18 9 -29 -11 -14 -10 -15 12 -18
14 -1 29 -37 21 -50 -3 -5 2 -6 12 -3 14 6 16 3 11 -14 -5 -16 -4 -19 5 -14
10 6 12 1 8 -18 -4 -18 -1 -24 9 -20 7 3 13 -2 13 -11 0 -9 5 -16 11 -16 6 0
9 -8 7 -17 -2 -10 5 -22 16 -28 11 -5 21 -17 24 -25 3 -9 -2 -7 -12 5 -17 20
-17 20 -7 -1 6 -12 8 -24 4 -27 -3 -4 4 -4 17 -2 19 4 20 2 8 -12 -9 -12 -9
-15 0 -9 7 4 12 1 12 -9 0 -10 5 -13 12 -9 6 4 8 3 5 -3 -3 -5 3 -22 14 -39
10 -16 19 -37 19 -46 0 -9 7 -21 17 -26 26 -15 9 -40 -25 -37 -16 1 -35 6 -42
10 -9 5 -11 4 -6 -3 8 -14 -29 -11 -41 3 -5 4 -2 5 6 0 10 -6 12 -4 6 5 -6 10
-11 9 -22 -5 -11 -16 -15 -17 -26 -5 -10 10 -9 11 2 5 10 -6 12 -4 6 5 -6 10
-11 9 -22 -5 -13 -18 -13 -18 -14 1 -1 14 -2 15 -6 3 -4 -17 -58 -15 -81 4 -9
7 -11 6 -7 -4 4 -12 -20 -14 -146 -12 -99 1 -156 6 -165 14 -11 9 -13 9 -9 -2
4 -12 -16 -14 -114 -13 -65 1 -123 4 -129 8 -6 3 -12 0 -15 -6 -3 -10 -8 -10
-18 1 -12 12 -12 13 0 6 10 -6 12 -4 6 5 -6 10 -11 9 -22 -5 -13 -18 -13 -18
-14 1 0 18 -1 18 -9 -1 -6 -13 -9 -15 -9 -5 -1 13 -2 13 -11 0 -8 -13 -11 -13
-22 -1 -11 11 -11 13 1 6 10 -6 12 -4 6 5 -6 10 -11 9 -22 -5 -13 -18 -13 -18
-14 1 0 18 -1 18 -8 0 -7 -17 -8 -17 -24 -2 -14 14 -17 15 -17 3 0 -11 -11
-14 -52 -10 -29 2 -59 9 -66 15 -9 8 -11 7 -7 -4 5 -13 -2 -15 -47 -11 -29 2
-58 9 -65 15 -9 7 -14 6 -19 -6 -4 -12 -11 -13 -24 -6 -13 7 -20 6 -23 -3 -3
-9 -8 -9 -18 2 -12 12 -12 13 0 6 10 -6 12 -4 6 5 -6 10 -11 9 -22 -5 -13 -18
-13 -18 -14 1 0 18 -1 18 -9 -1 -6 -13 -9 -15 -9 -5 -1 13 -2 13 -11 0 -8 -13
-11 -13 -22 -1 -11 11 -11 13 1 6 10 -6 12 -4 6 5 -6 10 -11 9 -22 -5 -13 -18
-13 -18 -14 1 -1 13 -3 14 -5 4 -4 -12 -14 -15 -39 -12 -20 2 -38 8 -41 13 -9
15 -24 10 -24 -7 0 -13 -3 -14 -14 -5 -21 18 -6 69 16 55 7 -4 8 -2 4 5 -4 6
-2 18 4 26 7 8 10 15 6 15 -4 0 1 11 10 26 11 15 23 23 32 19 12 -4 13 -3 2
10 -9 11 -9 15 -1 15 7 0 9 5 5 12 -5 8 -1 9 12 4 15 -6 16 -5 7 5 -10 10 -9
15 5 26 11 10 12 12 2 8 -8 -4 -4 3 10 16 14 13 20 20 13 15 -10 -6 -12 -4 -7
8 3 9 12 16 20 16 8 0 13 3 13 8 -3 20 2 43 9 38 4 -2 18 14 31 36 13 22 17
37 9 32 -7 -4 -5 2 5 13 9 11 14 23 10 28 -5 4 -2 5 5 1 6 -4 12 -2 12 4 0 6
5 8 13 4 7 -5 6 0 -3 11 -12 15 -12 17 -1 10 11 -6 13 -4 8 9 -6 14 -3 17 9
12 15 -6 15 -4 3 11 -9 11 -10 14 -1 9 7 -4 12 -1 12 8 0 9 6 16 13 16 8 0 7
4 -3 10 -12 8 -10 10 10 11 14 0 19 3 13 6 -7 2 -13 9 -13 14 0 6 4 8 8 5 4
-2 14 4 21 16 10 16 10 19 -1 13 -7 -4 -2 3 12 15 14 12 18 19 10 15 -12 -5
-12 -4 1 7 9 7 14 19 11 27 -3 9 0 11 8 6 10 -6 12 -4 7 9 -4 9 -3 15 2 11 5
-3 15 11 21 30 6 19 18 38 25 42 13 8 15 12 15 33 0 6 12 23 28 37 15 15 21
23 13 18 -7 -4 1 17 17 46 17 30 35 53 41 52 6 -2 8 4 5 12 -6 14 6 20 29 16
5 -1 6 3 2 9 -3 6 -11 8 -16 5 -5 -4 -9 1 -9 10 0 9 4 13 10 10 5 -3 12 6 16
21 5 19 9 22 15 12 6 -9 9 -5 9 13 0 17 8 30 23 38 22 11 22 11 -3 5 -24 -6
-24 -6 -5 9 11 8 24 13 30 10 5 -3 4 0 -2 7 -15 16 0 40 24 40 8 0 11 5 8 10
-4 6 -11 8 -16 5 -5 -4 -9 -4 -9 -1 0 3 17 17 37 31 21 14 33 25 27 25 -5 0
-15 -5 -21 -11 -9 -9 -10 -7 -6 9 3 12 9 19 14 16 5 -3 9 2 9 10 0 9 7 16 15
16 8 0 15 5 15 11 0 5 -4 7 -10 4 -6 -3 -7 1 -4 9 3 9 10 14 14 11 11 -7 22
24 13 37 -3 7 -1 8 5 4 7 -4 12 -2 12 4 0 6 5 8 13 4 9 -6 9 -5 0 8 -7 8 -10
18 -6 21 10 11 41 8 49 -5z m1648 -188 c4 0 5 4 2 8 -3 5 1 9 9 9 17 0 19 -8
5 -25 -7 -9 -7 -9 2 -2 15 13 48 13 48 0 0 -5 6 -7 14 -4 8 3 17 0 22 -7 5 -8
3 -10 -6 -4 -9 6 -11 4 -5 -4 5 -9 11 -9 18 -2 7 7 15 4 26 -8 9 -9 12 -10 6
-2 -8 12 -7 12 12 3 12 -7 26 -11 30 -11 17 4 43 -14 36 -25 -4 -6 1 -5 10 3
13 10 17 10 17 1 0 -7 7 -10 15 -7 8 4 17 2 20 -4 4 -5 10 -7 15 -4 5 3 15 -3
22 -15 7 -11 16 -20 21 -20 4 0 5 5 2 10 -3 6 -1 10 4 10 6 0 11 -5 11 -11 0
-5 9 -9 19 -7 10 2 29 -6 42 -17 12 -11 19 -14 15 -7 -4 6 -2 12 3 12 6 0 11
-8 11 -17 0 -15 2 -16 10 -3 6 9 10 11 10 3 0 -7 7 -10 15 -7 11 5 14 2 9 -12
-6 -16 -5 -17 7 -6 19 18 32 15 24 -5 -5 -14 -4 -15 6 -6 10 10 17 9 33 -5 11
-9 16 -11 12 -4 -4 6 -2 12 3 12 6 0 11 -6 11 -14 0 -8 4 -18 10 -21 5 -3 7 0
4 8 -3 8 1 14 10 14 8 0 14 -5 13 -11 -1 -5 5 -10 13 -11 8 0 15 -9 16 -20 0
-25 -17 -66 -26 -60 -3 2 -6 -6 -6 -18 1 -14 -4 -21 -13 -19 -12 3 -12 1 0
-14 12 -16 12 -17 -4 -11 -15 6 -16 4 -7 -13 8 -16 8 -22 -3 -26 -8 -3 -13
-16 -11 -30 1 -13 -2 -22 -7 -18 -5 3 -6 10 -3 16 4 6 2 8 -3 5 -6 -4 -8 -18
-5 -32 4 -21 1 -24 -14 -19 -17 6 -17 5 1 -9 18 -14 18 -16 3 -22 -9 -4 -14
-13 -12 -20 3 -7 0 -16 -5 -20 -6 -3 -9 -11 -6 -16 4 -5 -2 -9 -12 -9 -13 0
-15 -2 -5 -9 10 -6 11 -13 1 -34 -7 -15 -16 -27 -21 -27 -4 0 -8 -5 -8 -11 0
-5 4 -7 10 -4 6 3 7 -1 4 -10 -4 -9 -13 -14 -22 -10 -12 4 -13 3 -2 -10 10
-12 10 -15 0 -15 -8 0 -10 -3 -7 -7 4 -3 -1 -12 -11 -20 -16 -14 -16 -14 1 -9
17 5 17 4 2 -16 -8 -13 -15 -31 -15 -41 0 -10 -4 -16 -9 -13 -11 7 -23 -22
-15 -36 4 -5 -4 -24 -16 -40 -18 -25 -20 -32 -9 -39 8 -5 9 -9 4 -9 -6 0 -16
-9 -23 -21 -8 -12 -9 -18 -3 -14 8 4 7 -2 -1 -19 -13 -31 -16 -31 -45 -7 -24
20 -33 69 -11 55 7 -4 8 -3 4 5 -4 6 -11 9 -16 6 -5 -3 -14 4 -20 15 -6 11 -7
20 -3 20 4 0 2 5 -5 12 -9 9 -9 15 1 27 9 12 9 13 0 7 -8 -4 -13 -1 -13 8 0 9
-4 16 -10 16 -5 0 -7 6 -4 14 3 8 1 17 -4 20 -6 3 -8 16 -5 29 3 16 2 18 -5 9
-7 -11 -10 -9 -15 7 -3 12 -1 19 4 15 5 -3 6 2 3 10 -3 9 -11 16 -16 16 -6 0
-5 7 2 15 7 9 10 18 6 22 -3 3 -6 1 -6 -5 0 -7 -4 -12 -9 -12 -5 0 -7 10 -3
22 4 16 2 19 -9 13 -11 -7 -11 -5 1 10 8 10 10 16 4 12 -12 -7 -41 39 -31 50
4 3 2 12 -4 20 -9 9 -8 13 0 13 6 0 11 4 11 10 0 5 -7 7 -15 4 -18 -7 -20 7
-2 25 10 10 9 11 -6 5 -13 -5 -16 -2 -11 11 4 10 -2 29 -16 47 -12 17 -18 28
-12 24 6 -3 14 -2 17 4 4 6 3 10 -2 9 -19 -3 -33 2 -33 12 0 5 6 7 13 3 8 -6
8 -3 -2 9 -7 9 -11 24 -7 32 3 9 2 13 -4 10 -6 -3 -10 -1 -10 5 0 6 -4 9 -8 6
-5 -3 -9 1 -9 8 0 9 7 12 16 9 11 -4 10 -1 -3 9 -10 8 -16 20 -13 25 4 6 0 14
-9 17 -9 4 -14 13 -10 21 3 9 0 15 -10 15 -8 0 -12 5 -9 10 4 6 12 7 18 3 8
-5 8 -2 0 9 -7 8 -9 19 -5 23 4 5 2 5 -5 1 -8 -4 -16 8 -25 36 -6 24 -17 46
-23 50 -6 5 -6 8 3 8 6 0 12 5 12 11 0 5 -4 7 -10 4 -5 -3 -12 7 -16 22 -4 15
-12 34 -18 42 -9 12 -8 13 3 6 11 -6 13 -4 8 11 -7 18 -6 18 7 2 7 -10 16 -18
20 -18z m-298 -68 c-17 -16 -18 -16 -5 5 7 12 15 20 18 17 3 -2 -3 -12 -13
-22z m144 -2 c0 -5 -5 -10 -11 -10 -5 0 -7 5 -4 10 3 6 8 10 11 10 2 0 4 -4 4
-10z m20 -30 c0 -11 5 -20 10 -20 6 0 10 -5 10 -11 0 -5 -6 -7 -12 -3 -7 4 -3
-4 8 -17 13 -14 20 -33 18 -47 -3 -16 0 -21 8 -16 8 5 9 2 5 -9 -3 -10 -2 -17
3 -17 14 0 12 -34 -2 -49 -7 -7 -8 -12 -3 -11 21 5 36 0 30 -10 -3 -5 -1 -10
4 -10 6 0 11 -5 11 -11 0 -5 -4 -7 -10 -4 -16 10 -11 0 14 -30 14 -16 22 -33
20 -37 -3 -5 1 -19 9 -32 12 -17 13 -26 4 -35 -8 -8 -8 -11 1 -11 6 0 16 -10
23 -21 6 -12 7 -19 2 -16 -5 3 -9 -3 -9 -13 0 -13 4 -16 11 -10 8 7 12 5 12
-5 0 -8 -4 -15 -9 -15 -4 0 -8 -4 -8 -10 0 -5 7 -7 15 -4 11 5 15 -1 15 -21 0
-14 4 -24 8 -21 5 3 9 -1 9 -9 0 -8 -3 -12 -7 -10 -4 2 -7 -2 -7 -10 0 -8 3
-14 6 -13 19 2 24 -4 11 -12 -12 -8 -12 -10 5 -10 17 0 17 -2 5 -10 -8 -5 -10
-10 -5 -10 6 0 16 -9 23 -21 8 -12 9 -18 4 -15 -6 3 -9 -1 -8 -10 1 -8 9 -20
17 -25 12 -7 12 -9 -1 -9 -12 -1 -12 -3 3 -14 9 -7 17 -21 17 -30 0 -9 5 -16
10 -16 6 0 10 -5 10 -10 0 -7 -8 -7 -22 1 -17 8 -16 4 7 -16 17 -14 23 -23 15
-19 -13 7 -13 5 -2 -9 8 -9 10 -22 6 -28 -5 -8 -2 -10 8 -7 9 4 15 0 15 -8 0
-8 -5 -14 -11 -15 -6 0 -2 -4 9 -9 14 -6 15 -9 5 -10 -10 -1 -9 -4 5 -9 11 -5
20 -18 20 -32 1 -13 8 -37 15 -54 7 -16 12 -38 11 -47 -1 -10 3 -18 9 -18 6 0
8 -5 5 -10 -4 -6 -11 -8 -16 -5 -15 10 -10 -2 8 -16 14 -12 16 -12 8 0 -5 10
-4 12 4 7 9 -6 9 -11 0 -22 -10 -12 -8 -13 7 -9 10 4 6 -1 -10 -10 -19 -11
-31 -13 -35 -7 -4 7 -12 8 -21 2 -8 -5 -22 -4 -33 2 -14 7 -17 7 -13 -1 4 -6
2 -11 -3 -11 -6 0 -11 6 -11 13 0 7 -3 8 -8 2 -9 -12 -42 -12 -61 0 -11 6 -13
4 -7 -10 6 -18 6 -18 -15 1 -12 10 -20 14 -16 9 3 -7 -22 -11 -74 -11 -43 0
-79 4 -79 9 0 4 5 5 12 1 7 -5 8 -3 3 6 -6 10 -11 10 -20 -3 -14 -19 -30 -23
-19 -5 5 7 3 8 -6 3 -6 -4 -33 -9 -59 -11 -42 -2 -44 -1 -27 12 11 8 15 14 10
14 -6 0 -15 -5 -21 -11 -12 -12 -105 -20 -98 -9 2 4 -2 7 -10 7 -8 0 -12 -4
-9 -9 6 -10 -48 -4 -66 7 -9 5 -11 4 -6 -3 9 -15 1 -15 -26 -1 -13 7 -18 7
-14 1 4 -7 -4 -10 -20 -8 -14 2 -30 9 -35 17 -7 11 -9 10 -9 -4 0 -11 -5 -17
-12 -14 -7 2 -12 11 -10 18 1 9 -2 8 -11 -3 -11 -14 -16 -15 -27 -5 -10 9 -11
9 -6 -1 5 -8 1 -11 -11 -9 -40 6 -45 17 -23 53 23 41 25 48 8 38 -8 -4 -10 -3
-5 2 5 5 14 9 19 9 6 0 13 6 16 14 3 9 0 11 -9 7 -8 -4 -3 2 11 14 14 12 19
19 13 15 -7 -3 -13 -1 -13 4 0 6 5 11 11 11 6 0 9 7 5 15 -3 8 -2 14 2 14 19
-3 25 2 12 11 -10 6 -11 10 -2 10 6 0 12 7 12 16 0 8 4 13 9 10 5 -4 7 4 3 16
-3 13 -1 19 5 15 6 -4 14 0 17 9 3 8 2 12 -4 9 -6 -3 -7 1 -4 9 3 9 11 13 17
9 6 -3 7 -1 3 6 -4 6 -2 18 4 26 7 8 9 15 4 15 -5 0 2 7 14 16 18 12 20 19 12
29 -9 11 -5 17 17 30 15 9 20 14 10 11 -12 -4 -17 -2 -14 6 2 7 9 12 14 11 6
-1 9 11 8 27 -1 16 1 27 6 24 5 -3 9 0 9 6 0 6 5 8 13 4 7 -5 6 0 -3 11 -12
15 -12 17 -1 10 11 -6 13 -4 8 8 -4 11 2 25 16 38 12 12 15 18 7 14 -13 -8
-13 -7 -1 8 7 9 10 17 5 17 -4 0 1 6 12 14 10 8 16 18 12 22 -4 4 0 13 10 21
9 8 12 12 5 8 -7 -3 1 20 17 51 17 31 28 60 25 64 -3 4 2 11 11 14 8 3 13 10
9 16 -8 12 13 52 24 46 4 -3 7 7 6 22 -2 35 4 46 19 33 8 -7 12 -4 13 10 1 12
-3 17 -10 13 -7 -3 -5 0 4 8 9 7 14 19 11 27 -3 8 0 11 7 7 7 -5 9 -1 5 8 -4
11 0 16 12 16 16 0 17 2 4 10 -13 9 -13 10 0 10 13 0 13 1 0 10 -13 9 -8 14
12 12 3 -1 9 5 12 14 3 8 2 12 -4 9 -6 -3 -10 -2 -10 3 0 13 29 24 42 15 7 -3
8 -1 4 5 -4 7 -2 12 3 12 6 0 11 -9 11 -20z m-1950 -150 c0 -5 -5 -10 -11 -10
-5 0 -7 5 -4 10 3 6 8 10 11 10 2 0 4 -4 4 -10z m1611 -213 c-10 -9 -11 -8 -5
6 3 10 9 15 12 12 3 -3 0 -11 -7 -18z m607 -12 c-3 -3 -9 2 -12 12 -6 14 -5
15 5 6 7 -7 10 -15 7 -18z m597 5 c-3 -5 -1 -11 4 -15 6 -3 8 -11 5 -19 -3 -7
0 -25 6 -41 10 -25 9 -27 -5 -15 -15 12 -15 10 -3 -16 7 -16 17 -32 23 -36 6
-5 4 -8 -5 -8 -13 0 -13 -1 0 -10 10 -6 11 -10 3 -10 -7 0 -13 -5 -13 -11 0
-6 6 -9 13 -6 10 4 13 -4 11 -31 -1 -21 2 -43 8 -49 6 -7 8 -13 6 -13 -3 0 -2
-18 2 -39 6 -33 5 -38 -9 -34 -10 3 -8 -1 5 -10 15 -11 20 -26 19 -51 0 -20 3
-36 7 -36 4 0 8 -4 8 -10 0 -5 -8 -6 -17 -3 -15 6 -16 5 -3 -9 8 -9 20 -13 25
-10 6 3 4 -2 -4 -11 -11 -14 -11 -17 0 -18 12 0 12 -1 0 -6 -10 -4 -10 -7 -1
-13 7 -4 13 -22 14 -39 0 -17 5 -31 11 -31 5 -1 -1 -7 -15 -16 -19 -11 -20
-14 -5 -9 16 4 21 0 22 -15 1 -11 -2 -18 -7 -15 -11 7 -7 -22 5 -32 4 -4 5 -2
1 5 -4 6 -3 12 2 12 6 0 9 -11 8 -25 0 -14 -5 -25 -9 -25 -5 0 -6 -4 -3 -9 8
-13 -43 -4 -62 10 -12 10 -11 6 3 -10 l20 -24 -34 17 c-18 10 -31 13 -27 8 3
-5 -6 -9 -21 -9 -25 0 -26 0 -8 13 10 8 14 14 9 14 -6 0 -15 -5 -21 -11 -12
-12 -105 -20 -98 -9 2 4 -2 7 -10 7 -8 0 -12 -4 -10 -7 3 -4 -19 -6 -48 -4
-28 1 -65 3 -80 3 -26 1 -27 2 -13 17 12 12 13 20 6 35 -6 11 -7 19 -3 18 20
-3 27 2 13 11 -11 7 -11 10 -2 10 8 0 10 5 6 12 -5 8 -2 9 11 4 15 -5 16 -4 5
9 -10 12 -10 15 1 15 11 0 11 2 -1 10 -13 8 -12 10 4 10 15 0 16 3 7 14 -9 11
-8 15 4 20 9 3 13 10 10 16 -3 5 -2 10 4 10 6 0 8 7 5 15 -4 9 0 15 7 15 11 0
11 3 -1 10 -13 8 -13 10 2 10 9 0 20 5 24 12 5 8 1 9 -12 5 -18 -7 -18 -7 0 8
12 9 15 15 7 15 -9 0 -6 6 6 18 10 9 13 13 6 8 -10 -6 -12 -5 -7 7 3 8 12 18
20 21 8 3 14 11 14 18 0 9 -3 8 -10 -2 -6 -9 -10 -10 -10 -3 0 6 7 18 15 26 8
8 12 24 10 36 -2 12 0 19 4 16 5 -3 12 2 15 11 3 8 11 12 17 8 8 -4 9 -3 5 5
-4 6 -12 9 -17 6 -5 -4 -5 3 0 17 5 13 15 22 23 20 10 -3 10 -1 1 9 -10 10 -9
15 5 25 11 9 13 13 4 14 -7 0 -10 5 -7 10 4 6 12 7 18 4 7 -4 9 -3 4 1 -4 5 0
19 8 31 14 21 14 23 -2 17 -11 -4 -14 -3 -9 5 4 7 15 12 24 12 10 0 13 3 7 8
-16 11 -16 32 0 32 9 0 12 6 8 17 -4 11 -3 14 5 9 7 -4 12 -2 12 5 0 8 5 7 17
-2 15 -13 15 -12 2 9 -8 12 -15 18 -17 12 -2 -5 -8 -10 -14 -10 -7 0 -6 5 2
14 12 15 44 11 35 -4z m-3017 -370 c-7 -10 -14 -17 -17 -15 -4 4 18 35 25 35
2 0 -1 -9 -8 -20z m2626 -169 c13 -14 14 -21 5 -27 -8 -4 -10 -3 -5 4 4 7 3
12 -2 12 -6 0 -12 7 -16 15 -7 20 -3 19 18 -4z"/>
<path d="M4434 5492 c23 -26 23 -26 23 -7 0 8 -3 13 -5 10 -3 -3 -12 1 -21 7
-10 8 -9 4 3 -10z"/>
<path d="M4665 5450 c-3 -6 1 -7 9 -4 18 7 21 14 7 14 -6 0 -13 -4 -16 -10z"/>
<path d="M4970 5406 c0 -2 7 -7 16 -10 8 -3 12 -2 9 4 -6 10 -25 14 -25 6z"/>
<path d="M5010 5391 c0 -9 30 -24 36 -18 2 1 -6 8 -16 15 -11 7 -20 8 -20 3z"/>
<path d="M4154 4905 c-4 -8 -11 -12 -18 -8 -6 3 -7 2 -3 -2 14 -16 33 -13 33
6 0 23 -5 24 -12 4z"/>
<path d="M5100 4891 c0 -10 19 -25 25 -20 1 2 -3 10 -11 17 -8 7 -14 8 -14 3z"/>
<path d="M5515 5110 c3 -5 8 -10 11 -10 2 0 4 5 4 10 0 6 -5 10 -11 10 -5 0
-7 -4 -4 -10z"/>
<path d="M6105 4709 c-4 -6 -5 -12 -2 -15 2 -3 7 2 10 11 7 17 1 20 -8 4z"/>
<path d="M6135 4520 c3 -5 8 -10 11 -10 2 0 4 5 4 10 0 6 -5 10 -11 10 -5 0
-7 -4 -4 -10z"/>
<path d="M6353 4455 c0 -7 6 -11 14 -8 7 3 13 6 13 8 0 2 -6 5 -13 8 -8 3 -14
-1 -14 -8z"/>
<path d="M5075 4660 c3 -5 8 -10 11 -10 2 0 4 5 4 10 0 6 -5 10 -11 10 -5 0
-7 -4 -4 -10z"/>
<path d="M5336 4637 c3 -10 9 -15 12 -12 3 3 0 11 -7 18 -10 9 -11 8 -5 -6z"/>
<path d="M4476 4277 c3 -10 9 -15 12 -12 3 3 0 11 -7 18 -10 9 -11 8 -5 -6z"/>
<path d="M5065 4200 c-3 -6 1 -7 9 -4 18 7 21 14 7 14 -6 0 -13 -4 -16 -10z"/>
<path d="M4450 4086 c0 -2 8 -10 18 -17 15 -13 16 -12 3 4 -13 16 -21 21 -21
13z"/>
<path d="M5563 4492 c10 -10 14 -22 10 -27 -5 -4 -2 -5 5 -1 11 6 10 12 -4 27
-9 10 -19 19 -22 19 -3 0 2 -8 11 -18z"/>
<path d="M6075 3800 c-3 -5 -1 -10 4 -10 6 0 11 5 11 10 0 6 -2 10 -4 10 -3 0
-8 -4 -11 -10z"/>
<path d="M5286 3752 c-3 -5 1 -9 9 -9 8 0 12 4 9 9 -3 4 -7 8 -9 8 -2 0 -6 -4
-9 -8z"/>
<path d="M5990 3650 c0 -5 5 -10 11 -10 5 0 7 5 4 10 -3 6 -8 10 -11 10 -2 0
-4 -4 -4 -10z"/>
<path d="M6115 3640 c-3 -5 -1 -10 4 -10 6 0 11 5 11 10 0 6 -2 10 -4 10 -3 0
-8 -4 -11 -10z"/>
<path d="M6659 3933 c-13 -17 -13 -17 6 -3 11 8 22 16 24 17 2 2 0 3 -6 3 -6
0 -17 -8 -24 -17z"/>
<path d="M6855 3439 c-4 -6 -5 -12 -2 -15 2 -3 7 2 10 11 7 17 1 20 -8 4z"/>
<path d="M4615 3500 c3 -5 8 -10 11 -10 2 0 4 5 4 10 0 6 -5 10 -11 10 -5 0
-7 -4 -4 -10z"/>
<path d="M4083 2565 c0 -8 4 -12 9 -9 5 3 6 10 3 15 -9 13 -12 11 -12 -6z"/>
<path d="M3993 2515 c0 -8 4 -12 9 -9 5 3 6 10 3 15 -9 13 -12 11 -12 -6z"/>
<path d="M4050 2520 c0 -5 5 -10 11 -10 5 0 7 5 4 10 -3 6 -8 10 -11 10 -2 0
-4 -4 -4 -10z"/>
<path d="M5019 3633 c-13 -16 -12 -17 4 -4 9 7 17 15 17 17 0 8 -8 3 -21 -13z"/>
<path d="M5270 3616 c0 -2 7 -9 15 -16 13 -11 14 -10 9 4 -5 14 -24 23 -24 12z"/>
<path d="M5586 3558 c3 -5 10 -6 15 -3 13 9 11 12 -6 12 -8 0 -12 -4 -9 -9z"/>
<path d="M6121 3484 c0 -11 3 -14 6 -6 3 7 2 16 -1 19 -3 4 -6 -2 -5 -13z"/>
<path d="M5275 3120 c3 -5 8 -10 11 -10 2 0 4 5 4 10 0 6 -5 10 -11 10 -5 0
-7 -4 -4 -10z"/>
<path d="M5436 2847 c3 -10 9 -15 12 -12 3 3 0 11 -7 18 -10 9 -11 8 -5 -6z"/>
<path d="M5565 2621 c-3 -5 -2 -12 3 -15 5 -3 9 1 9 9 0 17 -3 19 -12 6z"/>
<path d="M5741 2333 c-1 -17 16 -25 25 -12 4 7 3 9 -4 5 -5 -3 -13 0 -15 6 -4
9 -6 10 -6 1z"/>
<path d="M4102 2310 c-9 -15 -9 -21 1 -26 6 -4 9 -4 5 1 -4 4 -3 14 4 22 6 7
9 15 7 18 -3 2 -10 -4 -17 -15z"/>
<path d="M4446 2202 c-3 -5 1 -9 9 -9 8 0 12 4 9 9 -3 4 -7 8 -9 8 -2 0 -6 -4
-9 -8z"/>
<path d="M4566 2202 c-3 -5 1 -9 9 -9 8 0 12 4 9 9 -3 4 -7 8 -9 8 -2 0 -6 -4
-9 -8z"/>
<path d="M4846 2202 c-3 -5 1 -9 9 -9 8 0 12 4 9 9 -3 4 -7 8 -9 8 -2 0 -6 -4
-9 -8z"/>
<path d="M5006 2202 c-3 -5 1 -9 9 -9 8 0 12 4 9 9 -3 4 -7 8 -9 8 -2 0 -6 -4
-9 -8z"/>
<path d="M5166 2202 c-3 -5 1 -9 9 -9 8 0 12 4 9 9 -3 4 -7 8 -9 8 -2 0 -6 -4
-9 -8z"/>
<path d="M5326 2202 c-3 -5 1 -9 9 -9 8 0 12 4 9 9 -3 4 -7 8 -9 8 -2 0 -6 -4
-9 -8z"/>
<path d="M5610 2202 c0 -5 7 -9 15 -9 8 0 12 4 9 9 -3 4 -9 8 -15 8 -5 0 -9
-4 -9 -8z"/>
<path d="M6706 3318 c3 -5 10 -6 15 -3 13 9 11 12 -6 12 -8 0 -12 -4 -9 -9z"/>
<path d="M7157 3155 c-4 -8 -3 -16 1 -19 4 -3 9 4 9 15 2 23 -3 25 -10 4z"/>
<path d="M6815 2501 c-3 -5 -2 -12 3 -15 5 -3 9 1 9 9 0 17 -3 19 -12 6z"/>
<path d="M6730 2300 c0 -5 5 -10 11 -10 5 0 7 5 4 10 -3 6 -8 10 -11 10 -2 0
-4 -4 -4 -10z"/>
<path d="M5866 2198 c3 -5 10 -6 15 -3 13 9 11 12 -6 12 -8 0 -12 -4 -9 -9z"/>
<path d="M6105 2200 c-3 -6 1 -7 9 -4 18 7 21 14 7 14 -6 0 -13 -4 -16 -10z"/>
<path d="M6427 2199 c7 -7 15 -10 18 -7 3 3 -2 9 -12 12 -14 6 -15 5 -6 -5z"/>
<path d="M6505 2200 c-3 -6 1 -7 9 -4 18 7 21 14 7 14 -6 0 -13 -4 -16 -10z"/>
<path d="M7065 2200 c-3 -6 1 -7 9 -4 18 7 21 14 7 14 -6 0 -13 -4 -16 -10z"/>
<path d="M3936 5712 c-3 -5 1 -9 9 -9 8 0 12 4 9 9 -3 4 -7 8 -9 8 -2 0 -6 -4
-9 -8z"/>
<path d="M4773 5595 c0 -8 4 -12 9 -9 5 3 6 10 3 15 -9 13 -12 11 -12 -6z"/>
<path d="M2733 5495 c0 -8 4 -12 9 -9 5 3 6 10 3 15 -9 13 -12 11 -12 -6z"/>
<path d="M5710 5240 c0 -5 5 -10 11 -10 5 0 7 5 4 10 -3 6 -8 10 -11 10 -2 0
-4 -4 -4 -10z"/>
<path d="M1585 4750 c-4 -6 -10 -8 -15 -5 -5 3 -11 1 -14 -4 -8 -13 22 -7 36
7 7 7 9 12 6 12 -4 0 -10 -5 -13 -10z"/>
<path d="M6925 4000 c3 -5 8 -10 11 -10 2 0 4 5 4 10 0 6 -5 10 -11 10 -5 0
-7 -4 -4 -10z"/>
<path d="M6990 3881 c0 -6 4 -13 10 -16 6 -3 7 1 4 9 -7 18 -14 21 -14 7z"/>
<path d="M7085 3700 c-3 -5 -1 -10 4 -10 6 0 11 5 11 10 0 6 -2 10 -4 10 -3 0
-8 -4 -11 -10z"/>
<path d="M587 2059 c7 -7 15 -10 18 -7 3 3 -2 9 -12 12 -14 6 -15 5 -6 -5z"/>
<path d="M827 2059 c7 -7 15 -10 18 -7 3 3 -2 9 -12 12 -14 6 -15 5 -6 -5z"/>
<path d="M2070 2066 c0 -2 7 -7 16 -10 8 -3 12 -2 9 4 -6 10 -25 14 -25 6z"/>
<path d="M5859 2043 c-13 -17 -13 -17 6 -3 11 8 22 16 24 17 2 2 0 3 -6 3 -6
0 -17 -8 -24 -17z"/>
<path d="M6099 2043 c-13 -17 -13 -17 6 -3 11 8 22 16 24 17 2 2 0 3 -6 3 -6
0 -17 -8 -24 -17z"/>
<path d="M6339 2043 c-13 -17 -13 -17 6 -3 11 8 22 16 24 17 2 2 0 3 -6 3 -6
0 -17 -8 -24 -17z"/>
<path d="M7059 2043 c-13 -17 -13 -17 6 -3 11 8 22 16 24 17 2 2 0 3 -6 3 -6
0 -17 -8 -24 -17z"/>
</g>
</svg>
